<?xml version="1.0" encoding="UTF-8" standalone="no"?>
<!DOCTYPE svg PUBLIC "-//W3C//DTD SVG 1.1//EN" "http://www.w3.org/Graphics/SVG/1.1/DTD/svg11.dtd">
<svg xmlns="http://www.w3.org/2000/svg" version="1.1" viewBox="0.00 0.00 626.00 626.00">
<g stroke-width="2.00" fill="none" stroke-linecap="butt">
<path stroke="#b2dce1" vector-effect="non-scaling-stroke" d="
  M 298.24 0.00
  Q 298.18 26.29 298.16 52.60
  Q 298.16 52.72 298.26 53.39
  Q 298.46 54.74 296.06 54.76"
/>
<path stroke="#bee3e9" vector-effect="non-scaling-stroke" d="
  M 296.06 54.76
  Q 278.97 55.35 264.31 61.59
  Q 219.45 80.69 206.69 128.12"
/>
<path stroke="#edf2fc" vector-effect="non-scaling-stroke" d="
  M 206.69 128.12
  Q 164.15 127.87 121.91 128.02
  Q 107.83 128.06 102.50 129.53
  Q 92.39 132.32 85.41 140.17
  Q 68.14 159.58 78.63 183.02
  C 81.16 188.68 84.68 193.32 89.50 196.94
  Q 104.27 208.06 121.14 204.87"
/>
<path stroke="#f3f8ff" vector-effect="non-scaling-stroke" d="
  M 121.14 204.87
  C 130.44 206.51 140.07 204.37 148.75 206.57
  Q 161.17 209.72 168.75 220.35
  C 170.70 223.08 172.03 226.51 173.46 229.71
  C 175.43 234.11 180.28 232.51 183.94 232.39"
/>
<path stroke="#edf2fc" vector-effect="non-scaling-stroke" d="
  M 183.94 232.39
  L 183.93 250.76
  Q 183.93 251.25 183.45 251.23
  L 174.13 251.01
  A 0.93 0.92 22.9 0 0 173.45 251.28
  Q 171.68 253.01 171.31 256.12"
/>
<path stroke="#fafcff" vector-effect="non-scaling-stroke" d="
  M 171.31 256.12
  Q 168.59 261.87 163.87 265.86
  Q 157.56 271.20 149.47 273.40
  Q 144.61 274.73 134.89 274.65
  Q 119.25 274.52 104.75 274.53"
/>
<path stroke="#edf2fc" vector-effect="non-scaling-stroke" d="
  M 104.75 274.53
  Q 92.11 274.38 85.87 275.35
  C 72.51 277.44 60.59 285.50 53.03 296.42
  C 37.17 319.34 43.49 351.41 66.45 366.93
  C 77.89 374.66 90.47 376.17 104.84 375.32"
/>
<path stroke="#f3f8ff" vector-effect="non-scaling-stroke" d="
  M 104.84 375.32
  Q 119.24 375.90 131.37 382.42"
/>
<path stroke="#edf2fc" vector-effect="non-scaling-stroke" d="
  M 131.37 382.42
  L 139.27 387.83"
/>
<path stroke="#fafcff" vector-effect="non-scaling-stroke" d="
  M 139.27 387.83
  Q 152.02 399.67 156.51 416.14
  C 157.92 421.33 158.69 426.43 157.61 431.81
  C 156.87 435.49 156.82 438.84 155.60 442.52
  Q 154.77 445.01 154.20 447.83"
/>
<path stroke="#edf2fc" vector-effect="non-scaling-stroke" d="
  M 154.20 447.83
  Q 152.43 450.60 150.51 454.09
  C 140.75 471.87 121.95 481.00 101.76 480.87
  Q 93.87 480.81 69.48 480.92
  C 56.55 480.98 47.30 482.09 38.06 489.55
  C 20.84 503.48 15.50 526.49 25.94 546.06
  Q 35.31 563.62 56.50 568.84
  Q 59.21 569.50 60.46 567.95"
/>
<path stroke="#a8b2cb" vector-effect="non-scaling-stroke" d="
  M 60.46 567.95
  Q 62.43 569.50 64.00 569.51
  Q 138.76 569.69 363.22 569.53"
/>
<path stroke="#a0acbf" vector-effect="non-scaling-stroke" d="
  M 363.22 569.53
  Q 486.18 569.72 543.75 569.51
  Q 545.36 569.50 547.42 567.95"
/>
<path stroke="#edf2fc" vector-effect="non-scaling-stroke" d="
  M 547.42 567.95
  Q 548.24 569.04 550.22 568.62
  Q 569.26 564.60 582.06 552.21
  C 602.28 532.63 606.22 499.43 590.46 476.06
  Q 571.45 447.88 536.56 448.38"
/>
<path stroke="#9297a6" vector-effect="non-scaling-stroke" d="
  M 536.56 448.38
  Q 537.70 443.93 536.39 441.92
  C 532.98 436.70 526.00 445.71 524.45 449.08"
/>
<path stroke="#edf2fc" vector-effect="non-scaling-stroke" d="
  M 524.45 449.08
  L 516.78 447.69"
/>
<path stroke="#9297a6" vector-effect="non-scaling-stroke" d="
  M 516.78 447.69
  Q 516.59 444.25 516.53 440.57
  Q 516.47 436.27 515.36 433.64
  C 513.95 430.31 508.57 422.69 504.37 423.57
  C 502.37 423.99 501.47 426.19 501.65 428.00
  C 502.24 434.05 507.04 443.68 514.01 444.73
  Q 514.48 444.81 514.61 445.27
  Q 516.62 452.86 515.80 460.74
  Q 515.70 461.68 515.27 460.84
  Q 514.26 458.88 513.03 457.04
  Q 511.85 455.26 511.11 452.73
  Q 508.51 443.82 499.83 439.57
  C 497.29 438.33 492.70 437.98 492.96 442.26"
/>
<path stroke="#b1bfd9" vector-effect="non-scaling-stroke" d="
  M 492.96 442.26
  Q 490.83 439.60 489.08 437.19
  C 487.17 434.56 479.07 428.90 476.13 430.84
  C 473.17 432.79 475.69 436.55 476.50 439.52"
/>
<path stroke="#edf2fc" vector-effect="non-scaling-stroke" d="
  M 476.50 439.52
  Q 463.06 430.58 458.07 416.43
  Q 450.81 395.86 459.76 377.77
  C 466.35 364.43 478.18 354.71 492.63 350.98
  C 501.98 348.57 514.77 349.26 525.50 349.08
  C 540.20 348.84 555.58 339.43 564.17 327.79
  C 588.06 295.44 570.66 249.30 531.66 241.29
  Q 525.33 239.99 511.74 240.00
  Q 490.18 240.02 468.61 240.00
  Q 461.39 239.99 458.53 239.12
  C 447.63 235.83 442.72 222.86 449.35 213.32
  Q 454.90 205.33 464.73 205.41
  C 471.52 205.46 479.45 205.90 485.41 204.91
  C 496.78 203.02 506.44 196.70 512.41 186.75
  C 523.57 168.14 517.17 143.37 498.09 133.09
  C 487.65 127.46 479.80 128.12 464.89 128.05
  Q 429.76 127.91 394.61 128.01"
/>
<path stroke="#b2dce1" vector-effect="non-scaling-stroke" d="
  M 394.61 128.01
  C 383.32 85.50 347.89 56.52 303.85 54.60
  Q 303.25 54.57 303.25 53.98
  L 303.00 0.00"
/>
<path stroke="#9fcfde" vector-effect="non-scaling-stroke" d="
  M 394.61 128.01
  Q 397.16 140.12 397.06 143.52
  Q 396.83 151.44 388.50 151.24
  Q 379.30 151.03 347.36 151.22"
/>
<path stroke="#8fc3d6" vector-effect="non-scaling-stroke" d="
  M 347.36 151.22
  L 335.58 151.41"
/>
<path stroke="#5288a0" vector-effect="non-scaling-stroke" d="
  M 335.58 151.41
  L 306.66 151.21"
/>
<path stroke="#70bfcb" vector-effect="non-scaling-stroke" d="
  M 306.66 151.21
  Q 318.32 139.07 322.87 128.62
  Q 327.69 117.57 326.85 104.74
  Q 325.33 81.89 309.60 66.14
  Q 306.79 63.33 296.06 54.76"
/>
<path stroke="#5e8fa9" vector-effect="non-scaling-stroke" d="
  M 306.66 151.21
  L 265.78 151.38"
/>
<path stroke="#9bcade" vector-effect="non-scaling-stroke" d="
  M 265.78 151.38
  L 253.67 151.21"
/>
<path stroke="#abd6e6" vector-effect="non-scaling-stroke" d="
  M 253.67 151.21
  Q 233.15 151.02 211.74 151.37
  C 205.73 151.47 203.93 146.79 204.54 141.41
  Q 205.26 135.09 206.69 128.12"
/>
<path stroke="#9eb2d6" vector-effect="non-scaling-stroke" d="
  M 476.50 439.52
  Q 478.74 445.95 477.12 453.27
  C 475.23 461.81 469.40 472.16 467.67 479.98
  Q 462.61 502.81 482.70 517.51"
/>
<path stroke="#abd6e6" vector-effect="non-scaling-stroke" d="
  M 482.70 517.51
  Q 481.48 518.01 477.50 517.65
  Q 474.11 517.34 473.40 520.99
  Q 472.12 527.53 477.08 527.65"
/>
<path stroke="#9fcfde" vector-effect="non-scaling-stroke" d="
  M 477.08 527.65
  L 477.58 529.69"
/>
<path stroke="#abd6e6" vector-effect="non-scaling-stroke" d="
  M 477.58 529.69
  L 482.35 552.83"
/>
<path stroke="#8d9fbc" vector-effect="non-scaling-stroke" d="
  M 482.35 552.83
  L 394.91 552.81"
/>
<path stroke="#7b869b" vector-effect="non-scaling-stroke" d="
  M 394.91 552.81
  Q 399.21 549.53 396.32 545.17
  Q 396.01 544.69 395.46 544.52
  L 393.08 543.77
  Q 392.57 543.62 392.64 543.09
  Q 399.85 488.73 407.03 434.37
  C 407.65 429.70 406.74 425.32 401.25 425.37
  Q 388.62 425.47 376.86 425.41"
/>
<path stroke="#9ec7da" vector-effect="non-scaling-stroke" d="
  M 376.86 425.41
  Q 376.03 406.65 360.45 400.97
  C 353.07 398.28 342.69 399.16 334.37 399.31
  A 1.50 1.48 13.4 0 0 333.09 400.09
  C 330.88 404.25 329.74 408.13 329.66 413.15
  C 329.61 416.62 330.29 421.47 329.31 424.75
  A 0.50 0.49 -36.1 0 1 328.34 424.60
  C 328.38 422.94 328.94 421.15 328.73 419.47
  Q 327.51 409.26 331.95 399.92
  Q 332.22 399.34 331.58 399.34
  L 326.65 399.35"
/>
<path stroke="#ecd3d6" vector-effect="non-scaling-stroke" d="
  M 326.65 399.35
  Q 325.68 399.10 325.63 397.58
  Q 325.50 392.81 325.27 387.86"
/>
<path stroke="#7b869b" vector-effect="non-scaling-stroke" d="
  M 325.27 387.86
  Q 333.70 388.80 341.63 388.01
  Q 342.12 387.96 342.48 387.62
  Q 345.41 384.85 348.52 382.28
  C 365.27 368.42 365.31 349.98 363.14 330.08"
/>
<path stroke="#edf2fc" vector-effect="non-scaling-stroke" d="
  M 363.14 330.08
  L 364.45 329.53"
/>
<path stroke="#7b869b" vector-effect="non-scaling-stroke" d="
  M 364.45 329.53
  Q 365.85 344.42 364.30 356.50
  C 362.56 370.00 354.76 378.33 344.48 386.87
  Q 343.55 387.64 344.75 387.57
  Q 357.09 386.85 364.82 377.06"
/>
<path stroke="#cad9f1" vector-effect="non-scaling-stroke" d="
  M 364.82 377.06
  Q 365.58 379.06 368.00 379.02
  Q 393.75 378.66 419.50 378.78
  Q 424.62 378.80 429.60 378.55
  A 0.63 0.63 0.0 0 0 430.20 377.93
  Q 430.33 344.64 430.26 311.18
  C 430.25 309.43 430.56 306.54 429.99 304.49
  A 2.03 2.02 82.3 0 0 428.04 303.00
  Q 398.70 302.96 369.37 302.66
  Q 366.24 302.63 362.93 303.03"
/>
<path stroke="#7b869b" vector-effect="non-scaling-stroke" d="
  M 362.93 303.03
  Q 360.34 289.28 356.49 279.74
  C 351.74 267.99 341.55 259.93 330.16 255.11
  Q 329.68 254.90 329.84 254.40
  Q 334.17 240.84 326.98 230.03
  C 313.21 209.33 282.74 214.42 275.86 238.27"
/>
<path stroke="#808aa3" vector-effect="non-scaling-stroke" d="
  M 275.86 238.27
  Q 273.86 246.55 276.53 254.94
  Q 276.69 255.46 276.21 255.72
  L 269.37 259.37"
/>
<path stroke="#e7effc" vector-effect="non-scaling-stroke" d="
  M 269.37 259.37
  Q 268.13 256.29 265.36 256.30
  Q 227.57 256.45 189.64 256.38
  Q 189.07 256.38 189.08 256.94
  L 189.29 279.00"
/>
<path stroke="#e1ebfc" vector-effect="non-scaling-stroke" d="
  M 189.29 279.00
  L 188.85 316.19
  A 0.46 0.46 0.0 0 0 189.31 316.66
  L 219.35 316.59"
/>
<path stroke="#e7effc" vector-effect="non-scaling-stroke" d="
  M 219.35 316.59
  L 236.37 317.00"
/>
<path stroke="#ecd3d6" vector-effect="non-scaling-stroke" d="
  M 236.37 317.00
  Q 237.05 320.06 235.72 322.14"
/>
<path stroke="#e7effc" vector-effect="non-scaling-stroke" d="
  M 235.72 322.14
  L 213.24 322.21"
/>
<path stroke="#e1ebfc" vector-effect="non-scaling-stroke" d="
  M 213.24 322.21
  L 189.65 322.16
  A 0.77 0.77 0.0 0 0 188.88 322.93
  L 188.66 372.37"
/>
<path stroke="#ecd3d6" vector-effect="non-scaling-stroke" d="
  M 188.66 372.37
  Q 186.46 371.70 184.21 372.02"
/>
<path stroke="#e1ebfc" vector-effect="non-scaling-stroke" d="
  M 184.21 372.02
  L 183.97 322.81
  A 0.76 0.75 90.0 0 0 183.22 322.05
  L 154.09 322.14"
/>
<path stroke="#e7effc" vector-effect="non-scaling-stroke" d="
  M 154.09 322.14
  L 105.07 322.12
  A 0.47 0.46 -0.6 0 0 104.60 322.59
  L 104.65 352.28"
/>
<path stroke="#e1ebfc" vector-effect="non-scaling-stroke" d="
  M 104.65 352.28
  L 104.84 375.32"
/>
<path stroke="#e7effc" vector-effect="non-scaling-stroke" d="
  M 104.75 274.53
  L 104.58 316.20
  Q 104.58 316.68 105.05 316.68
  L 158.45 316.64"
/>
<path stroke="#e1ebfc" vector-effect="non-scaling-stroke" d="
  M 158.45 316.64
  L 183.57 316.79
  Q 183.90 316.79 183.90 316.46
  L 183.90 283.12"
/>
<path stroke="#e7effc" vector-effect="non-scaling-stroke" d="
  M 183.90 283.12
  L 183.97 257.09
  A 0.82 0.81 -89.6 0 0 183.17 256.27
  L 171.31 256.12"
/>
<path stroke="#e1ebfc" vector-effect="non-scaling-stroke" d="
  M 183.94 232.39
  L 183.90 172.75
  Q 183.90 172.17 183.31 172.13
  Q 182.08 172.04 180.23 172.22
  Q 143.56 175.87 121.14 204.87"
/>
<path stroke="#cad9f1" vector-effect="non-scaling-stroke" d="
  M 253.67 151.21
  Q 258.98 164.98 269.08 172.92
  C 283.23 184.05 303.88 187.87 320.73 179.82
  Q 324.70 177.93 328.44 175.64
  Q 332.77 173.00 336.65 168.82
  C 341.85 163.21 345.59 158.73 347.36 151.22"
/>
<path stroke="#e7effc" vector-effect="non-scaling-stroke" d="
  M 189.04 232.95
  L 189.04 250.40
  Q 189.04 251.04 189.69 251.04
  L 267.26 251.03
  Q 267.72 251.03 267.84 250.59
  C 268.24 249.05 267.67 247.45 267.56 246.30
  Q 265.43 223.78 251.65 205.06"
/>
<path stroke="#e1ebfc" vector-effect="non-scaling-stroke" d="
  M 251.65 205.06
  Q 249.86 202.41 246.35 198.66
  Q 223.66 174.44 190.27 172.17
  Q 188.96 172.08 188.97 173.39
  L 189.04 232.95"
/>
<path stroke="#eef5ff" vector-effect="non-scaling-stroke" d="
  M 251.65 205.06
  Q 247.03 208.29 242.08 214.33
  Q 236.33 221.35 228.04 227.34
  C 219.59 233.44 209.21 234.05 199.18 233.42
  Q 194.15 233.10 189.04 232.95"
/>
<path stroke="#cad9f1" vector-effect="non-scaling-stroke" d="
  M 423.3843 200.4604
  A 1.05 1.05 0.0 0 0 422.3362 199.4085
  L 366.7962 199.3116
  A 1.05 1.05 0.0 0 0 365.7444 200.3598
  L 365.5957 285.5796
  A 1.05 1.05 0.0 0 0 366.6438 286.6315
  L 422.1838 286.7284
  A 1.05 1.05 0.0 0 0 423.2356 285.6802
  L 423.3843 200.4604"
/>
<path stroke="#cad9f1" vector-effect="non-scaling-stroke" d="
  M 443.81 265.56
  C 444.40 279.34 443.99 293.08 443.99 306.87
  Q 443.99 307.39 443.80 307.87
  Q 443.44 308.78 443.72 309.65
  Q 443.89 310.16 444.43 310.17
  Q 473.09 310.43 501.75 310.19
  C 504.14 310.17 507.13 310.70 510.08 309.79
  Q 510.47 309.67 510.47 309.27
  L 510.36 265.99
  A 1.75 1.75 0.0 0 0 508.61 264.25
  L 445.03 264.29
  Q 443.76 264.29 443.81 265.56"
/>
<path stroke="#7d93b4" vector-effect="non-scaling-stroke" d="
  M 265.78 151.38
  C 282.09 180.04 319.52 180.17 335.58 151.41"
/>
<path stroke="#d1dff4" vector-effect="non-scaling-stroke" d="
  M 402.12 204.49
  L 393.08 204.29"
/>
<path stroke="#cad9f1" vector-effect="non-scaling-stroke" d="
  M 393.08 204.29
  L 371.15 204.29
  Q 370.62 204.29 370.62 204.82
  L 370.80 243.77"
/>
<path stroke="#d1dff4" vector-effect="non-scaling-stroke" d="
  M 370.80 243.77
  L 370.90 262.80"
/>
<path stroke="#cad9f1" vector-effect="non-scaling-stroke" d="
  M 370.90 262.80
  L 370.86 281.03
  A 0.86 0.86 0.0 0 0 371.74 281.89
  Q 394.99 281.32 418.21 282.58
  Q 418.66 282.60 418.65 282.16
  L 418.19 229.80"
/>
<path stroke="#d1dff4" vector-effect="non-scaling-stroke" d="
  M 418.19 229.80
  L 418.15 214.38"
/>
<path stroke="#cad9f1" vector-effect="non-scaling-stroke" d="
  M 418.15 214.38
  L 418.25 205.34
  A 1.19 1.18 -0.2 0 0 417.03 204.14
  L 402.12 204.49"
/>
<path stroke="#e1ebfc" vector-effect="non-scaling-stroke" d="
  M 418.15 214.38
  Q 413.45 214.69 411.92 216.41
  C 409.60 219.01 406.09 223.99 402.20 223.08
  C 396.32 221.70 402.98 213.11 402.53 209.77
  Q 402.17 207.15 402.12 204.49"
/>
<path stroke="#e1ebfc" vector-effect="non-scaling-stroke" d="
  M 418.19 229.80
  Q 407.71 228.32 402.27 237.76
  Q 398.97 243.50 400.43 248.52
  C 401.53 252.27 403.29 257.28 402.14 260.80
  C 398.73 271.29 384.62 261.72 377.90 261.77
  Q 374.59 261.79 370.90 262.80"
/>
<path stroke="#e1ebfc" vector-effect="non-scaling-stroke" d="
  M 393.08 204.29
  Q 395.69 210.88 393.17 216.61
  C 391.80 219.74 387.45 222.09 384.80 224.43
  A 2.58 2.58 0.0 0 0 384.47 227.94
  C 386.71 230.84 390.45 230.99 391.50 235.46
  Q 391.60 235.93 391.39 236.35
  C 389.55 240.01 387.00 241.20 382.80 241.86
  Q 376.79 242.79 370.80 243.77"
/>
<path stroke="#6b7a93" vector-effect="non-scaling-stroke" d="
  M 362.93 303.03
  L 364.08 307.84"
/>
<path stroke="#7b869b" vector-effect="non-scaling-stroke" d="
  M 364.08 307.84
  L 363.66 308.73"
/>
<path stroke="#8d7478" vector-effect="non-scaling-stroke" d="
  M 363.66 308.73
  L 362.06 308.05
  Q 361.66 307.87 361.74 308.30
  L 363.02 314.71"
/>
<path stroke="#8e939e" vector-effect="non-scaling-stroke" d="
  M 363.02 314.71
  C 360.43 316.37 359.33 318.75 362.17 321.04
  A 1.11 1.08 -73.1 0 1 362.56 321.79
  L 363.14 330.08"
/>
<path stroke="#8d7478" vector-effect="non-scaling-stroke" d="
  M 325.27 387.86
  L 324.96 378.52
  A 0.77 0.76 -13.0 0 1 325.42 377.79
  C 347.84 367.84 361.37 346.76 360.26 322.20
  C 360.02 316.90 360.54 310.95 359.79 305.30
  Q 359.72 304.76 359.18 304.75
  L 353.46 304.66"
/>
<path stroke="#212b45" vector-effect="non-scaling-stroke" d="
  M 353.46 304.66
  L 352.37 304.61
  Q 351.88 304.59 351.91 304.11
  Q 352.25 298.35 350.41 292.86
  Q 346.40 280.90 339.24 270.51
  C 331.60 259.42 319.14 251.02 307.13 245.41
  C 300.22 242.19 291.77 239.88 283.95 237.54
  Q 280.05 236.36 279.98 236.36
  Q 277.93 236.27 275.86 238.27"
/>
<path stroke="#927780" vector-effect="non-scaling-stroke" d="
  M 353.46 304.66
  L 349.17 304.64
  A 0.97 0.95 -11.6 0 1 348.31 304.08
  L 342.76 291.69
  A 0.27 0.27 0.0 0 0 342.25 291.82
  L 343.55 304.18
  A 0.48 0.48 0.0 0 1 343.07 304.71
  L 318.72 304.72
  Q 318.22 304.72 318.22 304.22
  L 318.22 291.29
  A 0.26 0.26 0.0 0 0 317.72 291.20
  L 313.05 304.22
  A 0.75 0.74 -79.9 0 1 312.35 304.71
  L 277.98 304.72
  Q 277.49 304.72 277.50 304.23
  L 277.69 287.51
  Q 277.73 284.40 276.65 287.31
  L 270.31 304.32
  A 0.62 0.61 -79.5 0 1 269.74 304.72
  L 249.74 304.72
  Q 247.86 304.72 247.83 306.61
  C 247.65 316.92 246.92 328.22 248.98 337.38
  Q 255.01 364.23 280.98 377.30
  A 0.92 0.91 14.1 0 1 281.48 378.13
  L 281.37 382.87"
/>
<path stroke="#9297a6" vector-effect="non-scaling-stroke" d="
  M 281.37 382.87
  Q 268.05 378.97 264.73 377.72
  Q 251.72 372.85 246.30 358.45
  Q 241.32 345.26 243.04 329.34
  Q 243.10 328.77 243.61 329.04
  L 244.85 329.72
  Q 245.40 330.02 245.31 329.40
  C 244.81 325.94 244.00 322.87 245.32 319.47
  C 245.94 317.88 245.66 316.89 244.90 315.52"
/>
<path stroke="#927780" vector-effect="non-scaling-stroke" d="
  M 244.90 315.52
  L 245.97 308.82
  Q 246.06 308.21 245.45 308.31
  Q 243.90 308.56 243.97 307.89"
/>
<path stroke="#8d94a6" vector-effect="non-scaling-stroke" d="
  M 243.97 307.89
  L 245.38 300.98"
/>
<path stroke="#868fa6" vector-effect="non-scaling-stroke" d="
  M 245.38 300.98
  C 247.46 290.44 250.65 277.71 257.61 269.26"
/>
<path stroke="#8d94a6" vector-effect="non-scaling-stroke" d="
  M 257.61 269.26
  Q 262.67 263.69 269.37 259.37"
/>
<path stroke="#eef5ff" vector-effect="non-scaling-stroke" d="
  M 183.90 283.12
  Q 172.29 288.35 166.06 298.01
  Q 161.08 305.75 158.45 316.64"
/>
<path stroke="#eef5ff" vector-effect="non-scaling-stroke" d="
  M 257.61 269.26
  C 257.13 268.34 256.09 268.13 255.11 268.48
  C 246.44 271.50 237.21 271.69 229.63 272.66
  Q 218.54 274.07 207.43 275.33
  Q 204.10 275.70 199.24 277.07
  Q 194.36 278.44 189.29 279.00"
/>
<path stroke="#d1dff4" vector-effect="non-scaling-stroke" d="
  M 449.33 289.46
  L 449.30 294.52"
/>
<path stroke="#cad9f1" vector-effect="non-scaling-stroke" d="
  M 449.30 294.52
  L 449.26 304.67
  A 0.60 0.59 0.0 0 0 449.86 305.26
  L 504.73 305.24
  A 0.47 0.47 0.0 0 0 505.20 304.77
  L 505.38 269.90
  Q 505.38 269.37 504.85 269.37
  L 499.86 269.36"
/>
<path stroke="#d1dff4" vector-effect="non-scaling-stroke" d="
  M 499.86 269.36
  L 494.71 269.28"
/>
<path stroke="#cad9f1" vector-effect="non-scaling-stroke" d="
  M 494.71 269.28
  L 449.54 269.21
  Q 448.98 269.21 448.99 269.78
  L 449.33 289.46"
/>
<path stroke="#e1ebfc" vector-effect="non-scaling-stroke" d="
  M 494.71 269.28
  Q 494.59 277.88 488.35 279.89
  C 483.94 281.31 476.18 279.46 470.91 278.69
  C 464.33 277.73 461.00 282.81 457.01 286.51
  Q 454.99 288.39 449.33 289.46"
/>
<path stroke="#e1ebfc" vector-effect="non-scaling-stroke" d="
  M 499.86 269.36
  Q 499.19 274.46 495.99 278.14
  Q 494.78 279.55 494.60 280.34
  C 493.82 283.86 501.13 286.52 501.02 290.76
  Q 500.86 297.35 501.60 304.06
  A 0.83 0.83 0.0 0 1 501.03 304.94
  Q 499.01 305.60 497.26 304.60
  Q 496.84 304.36 496.87 303.88
  Q 497.15 299.51 496.03 297.01
  C 493.37 291.05 486.88 293.83 482.10 294.44
  C 476.45 295.15 474.85 286.69 470.12 285.55
  C 465.88 284.53 460.95 289.65 456.67 293.18
  Q 452.70 296.44 449.30 294.52"
/>
<path stroke="#eef5ff" vector-effect="non-scaling-stroke" d="
  M 245.38 300.98
  Q 245.25 300.82 245.09 300.81
  Q 244.87 300.79 244.89 301.02
  Q 244.90 301.25 244.77 301.39
  Q 244.74 301.42 244.70 301.43
  Q 233.59 303.72 226.27 308.49
  Q 222.69 310.83 219.35 316.59"
/>
<path stroke="#b0b5b7" vector-effect="non-scaling-stroke" d="
  M 326.65 399.35
  Q 325.99 399.33 325.93 399.76
  Q 322.71 423.88 298.29 422.19"
/>
<path stroke="#ffe0d9" vector-effect="non-scaling-stroke" d="
  M 298.29 422.19
  Q 296.64 415.43 296.82 412.50
  C 297.29 404.52 296.58 394.37 290.26 388.53
  Q 289.09 387.45 288.01 386.31
  Q 286.66 384.87 284.93 384.23
  Q 283.11 383.55 281.37 382.87"
/>
<path stroke="#927780" vector-effect="non-scaling-stroke" d="
  M 273.92 316.08
  C 275.23 311.98 278.04 309.75 282.37 309.14
  A 0.45 0.44 -1.0 0 0 282.75 308.76
  Q 282.76 308.63 282.78 308.50
  Q 282.83 308.02 282.35 308.06
  Q 275.43 308.71 273.10 315.27
  Q 272.89 315.85 273.10 316.19
  A 0.46 0.45 -52.3 0 0 273.92 316.08"
/>
<path stroke="#927780" vector-effect="non-scaling-stroke" d="
  M 332.04 312.47
  C 332.80 313.39 333.36 315.09 334.30 316.13
  A 0.41 0.41 0.0 0 0 334.99 315.73
  Q 332.82 308.77 325.50 308.02
  A 0.45 0.45 0.0 0 0 325.01 308.50
  Q 325.05 309.07 325.45 309.10
  Q 329.53 309.47 332.04 312.47"
/>
<path stroke="#927780" vector-effect="non-scaling-stroke" d="
  M 282.5311 323.5800
  A 5.08 3.41 90.1 0 0 285.9500 318.5060
  A 5.08 3.41 90.1 0 0 282.5489 313.4200
  A 5.08 3.41 90.1 0 0 279.1300 318.4940
  A 5.08 3.41 90.1 0 0 282.5311 323.5800"
/>
<path stroke="#927780" vector-effect="non-scaling-stroke" d="
  M 325.3445 323.5899
  A 5.08 3.43 90.4 0 0 328.8099 318.5339
  A 5.08 3.43 90.4 0 0 325.4155 313.4301
  A 5.08 3.43 90.4 0 0 321.9501 318.4861
  A 5.08 3.43 90.4 0 0 325.3445 323.5899"
/>
<path stroke="#ffe0d9" vector-effect="non-scaling-stroke" d="
  M 304.54 339.90
  Q 300.71 338.58 301.43 335.80
  Q 302.34 332.27 302.92 328.77
  A 0.08 0.07 63.9 0 0 302.78 328.72
  Q 300.38 333.13 300.55 338.10
  A 1.29 1.28 -74.5 0 0 301.12 339.11
  Q 302.66 340.12 304.49 340.16
  Q 305.35 340.18 304.54 339.90"
/>
<path stroke="#ffe0d9" vector-effect="non-scaling-stroke" d="
  M 314.08 356.92
  L 293.88 356.92
  A 0.13 0.13 0.0 0 0 293.75 357.05
  L 293.75 357.10
  A 10.14 10.00 -0.0 0 0 303.89 367.10
  L 304.07 367.10
  A 10.14 10.00 0.0 0 0 314.21 357.10
  L 314.21 357.05
  A 0.13 0.13 0.0 0 0 314.08 356.92"
/>
<path stroke="#f9ddd9" vector-effect="non-scaling-stroke" d="
  M 243.97 307.89
  C 241.78 309.64 239.74 310.79 238.29 313.26
  Q 237.18 315.16 236.37 317.00"
/>
<path stroke="#6b7a93" vector-effect="non-scaling-stroke" d="
  M 364.82 377.06
  L 366.22 374.31"
/>
<path stroke="#d1dff4" vector-effect="non-scaling-stroke" d="
  M 366.22 374.31
  L 383.02 373.91"
/>
<path stroke="#cad9f1" vector-effect="non-scaling-stroke" d="
  M 383.02 373.91
  L 424.74 374.12
  Q 425.25 374.12 425.25 373.61
  L 425.24 357.28"
/>
<path stroke="#d1dff4" vector-effect="non-scaling-stroke" d="
  M 425.24 357.28
  L 425.22 345.54"
/>
<path stroke="#cad9f1" vector-effect="non-scaling-stroke" d="
  M 425.22 345.54
  L 425.19 308.36
  Q 425.19 307.80 424.63 307.80
  L 387.16 308.03"
/>
<path stroke="#d1dff4" vector-effect="non-scaling-stroke" d="
  M 387.16 308.03
  L 376.38 307.98"
/>
<path stroke="#cad9f1" vector-effect="non-scaling-stroke" d="
  M 376.38 307.98
  L 364.08 307.84"
/>
<path stroke="#ffe0d9" vector-effect="non-scaling-stroke" d="
  M 244.90 315.52
  Q 242.77 314.80 240.78 315.54
  Q 240.26 315.74 240.01 316.23
  Q 238.51 319.25 240.92 321.34
  A 1.27 1.23 19.9 0 1 241.36 322.24
  L 241.62 328.23"
/>
<path stroke="#927780" vector-effect="non-scaling-stroke" d="
  M 241.62 328.23
  Q 241.24 328.07 241.05 328.34"
/>
<path stroke="#f9ddd9" vector-effect="non-scaling-stroke" d="
  M 241.05 328.34
  Q 239.47 326.61 236.96 322.29
  Q 236.36 321.27 235.72 322.14"
/>
<path stroke="#ecd3d6" vector-effect="non-scaling-stroke" d="
  M 363.66 308.73
  Q 372.61 311.94 370.93 321.93
  Q 370.41 324.99 366.75 328.43"
/>
<path stroke="#8d7478" vector-effect="non-scaling-stroke" d="
  M 366.75 328.43
  L 365.79 328.41"
/>
<path stroke="#ffe0d9" vector-effect="non-scaling-stroke" d="
  M 365.79 328.41
  L 365.11 327.38
  Q 364.86 327.00 364.87 326.55
  L 364.98 321.61
  A 0.82 0.79 68.4 0 1 365.20 321.08
  Q 369.66 316.41 363.02 314.71"
/>
<path stroke="#e1ebfc" vector-effect="non-scaling-stroke" d="
  M 376.38 307.98
  Q 377.11 313.75 377.21 319.78
  C 377.33 326.18 382.29 326.73 385.30 330.59
  C 389.88 336.49 382.68 341.52 378.18 344.93
  C 374.43 347.76 375.99 352.56 376.67 356.50
  C 377.80 363.15 375.96 368.11 368.07 368.01"
/>
<path stroke="#7b869b" vector-effect="non-scaling-stroke" d="
  M 368.07 368.01
  Q 368.91 348.18 366.75 328.43"
/>
<path stroke="#e1ebfc" vector-effect="non-scaling-stroke" d="
  M 425.22 345.54
  Q 419.95 346.29 415.50 350.30
  Q 412.83 352.70 411.19 353.29
  C 401.63 356.75 394.12 346.80 398.36 338.11
  C 401.22 332.27 409.04 320.77 398.56 317.99
  C 392.38 316.36 388.80 314.70 387.16 308.03"
/>
<path stroke="#e1ebfc" vector-effect="non-scaling-stroke" d="
  M 425.24 357.28
  C 418.66 356.10 415.58 359.11 410.85 362.33
  C 404.69 366.51 401.32 363.98 397.01 359.70
  C 385.02 347.81 382.54 366.79 383.02 373.91"
/>
<path stroke="#828c9e" vector-effect="non-scaling-stroke" d="
  M 366.22 374.31
  L 368.07 368.01"
/>
<path stroke="#8e939e" vector-effect="non-scaling-stroke" d="
  M 365.79 328.41
  Q 364.63 328.57 364.45 329.53"
/>
<path stroke="#b1d4dd" vector-effect="non-scaling-stroke" d="
  M 298.29 422.19
  Q 297.74 423.27 299.24 425.35"
/>
<path stroke="#9297a6" vector-effect="non-scaling-stroke" d="
  M 299.24 425.35
  L 297.22 425.42"
/>
<path stroke="#b1d4dd" vector-effect="non-scaling-stroke" d="
  M 297.22 425.42
  Q 297.30 422.34 295.97 421.18"
/>
<path stroke="#ffe0d9" vector-effect="non-scaling-stroke" d="
  M 295.97 421.18
  Q 296.53 411.97 295.64 403.08
  C 295.10 397.66 293.65 393.88 290.36 389.88
  Q 286.96 385.74 281.24 384.70"
/>
<path stroke="#9297a6" vector-effect="non-scaling-stroke" d="
  M 281.24 384.70
  Q 281.57 383.94 280.38 383.57
  C 273.23 381.30 264.33 379.10 258.68 375.46
  C 247.23 368.08 242.14 353.44 241.94 340.25
  Q 241.85 334.18 241.62 328.23"
/>
<path stroke="#eef5ff" vector-effect="non-scaling-stroke" d="
  M 154.09 322.14
  Q 153.42 328.35 148.99 334.23
  C 144.57 340.12 135.79 344.34 128.50 345.36
  Q 116.43 347.04 104.65 352.28"
/>
<path stroke="#f3d8d9" vector-effect="non-scaling-stroke" d="
  M 184.21 372.02
  Q 183.76 373.40 182.11 374.57
  Q 181.65 374.89 181.33 374.43
  Q 180.67 373.44 179.94 372.45
  C 178.09 369.91 174.75 370.33 173.04 372.67
  C 171.97 374.14 172.29 375.73 172.59 377.42
  Q 172.70 378.03 172.08 377.98
  Q 166.40 377.54 165.58 383.23"
/>
<path stroke="#e1ebfc" vector-effect="non-scaling-stroke" d="
  M 165.58 383.23
  C 162.52 382.97 159.41 382.43 156.46 382.40
  Q 144.17 382.28 131.37 382.42"
/>
<path stroke="#eef5ff" vector-effect="non-scaling-stroke" d="
  M 213.24 322.21
  Q 206.09 341.80 204.82 349.50
  Q 202.28 364.96 195.50 379.11
  Q 195.26 379.61 194.72 379.68
  Q 193.12 379.91 192.38 380.82"
/>
<path stroke="#f3d8d9" vector-effect="non-scaling-stroke" d="
  M 192.38 380.82
  L 188.66 372.37"
/>
<path stroke="#8d94a6" vector-effect="non-scaling-stroke" d="
  M 241.05 328.34
  Q 239.77 340.75 239.55 362.00
  Q 239.41 375.12 248.49 382.77"
/>
<path stroke="#e7effc" vector-effect="non-scaling-stroke" d="
  M 248.49 382.77
  Q 245.72 382.56 243.00 382.49
  Q 223.55 381.99 204.69 382.49"
/>
<path stroke="#f9ddd9" vector-effect="non-scaling-stroke" d="
  M 204.69 382.49
  Q 199.64 381.75 194.73 382.86
  Q 192.82 383.29 192.38 380.82"
/>
<path stroke="#927780" vector-effect="non-scaling-stroke" d="
  M 281.24 384.70
  Q 281.46 387.38 280.85 388.17"
/>
<path stroke="#808aa3" vector-effect="non-scaling-stroke" d="
  M 280.85 388.17
  L 268.49 388.35"
/>
<path stroke="#868fa6" vector-effect="non-scaling-stroke" d="
  M 268.49 388.35
  L 256.85 386.74"
/>
<path stroke="#808aa3" vector-effect="non-scaling-stroke" d="
  M 256.85 386.74
  L 248.49 382.77"
/>
<path stroke="#ecd3d6" vector-effect="non-scaling-stroke" d="
  M 204.69 382.49
  L 205.46 387.28"
/>
<path stroke="#f9ddd9" vector-effect="non-scaling-stroke" d="
  M 205.46 387.28
  L 209.38 410.52"
/>
<path stroke="#b0b5b7" vector-effect="non-scaling-stroke" d="
  M 209.38 410.52
  L 172.11 424.06"
/>
<path stroke="#f9ddd9" vector-effect="non-scaling-stroke" d="
  M 172.11 424.06
  Q 165.47 407.79 159.79 391.41
  Q 159.44 390.40 160.33 387.24"
/>
<path stroke="#ecd3d6" vector-effect="non-scaling-stroke" d="
  M 160.33 387.24
  L 162.68 385.46
  A 1.42 1.40 -62.3 0 1 163.55 385.18
  Q 165.42 385.21 165.58 383.23"
/>
<path stroke="#ffe0d9" vector-effect="non-scaling-stroke" d="
  M 195.28 384.49
  L 194.46 384.72
  A 0.16 0.16 0.0 0 0 194.34 384.91
  L 194.74 386.32
  A 10.36 0.51 74.4 0 0 198.01 396.16
  L 198.17 396.12
  A 10.36 0.51 74.4 0 0 195.87 386.00
  L 195.48 384.60
  A 0.16 0.16 0.0 0 0 195.28 384.49"
/>
<path stroke="#e7effc" vector-effect="non-scaling-stroke" d="
  M 160.33 387.24
  L 139.27 387.83"
/>
<path stroke="#e1ebfc" vector-effect="non-scaling-stroke" d="
  M 256.85 386.74
  Q 249.79 388.44 242.65 387.67"
/>
<path stroke="#e7effc" vector-effect="non-scaling-stroke" d="
  M 242.65 387.67
  L 205.46 387.28"
/>
<path stroke="#b0b5b7" vector-effect="non-scaling-stroke" d="
  M 295.97 421.18
  Q 280.88 415.12 280.99 399.48"
/>
<path stroke="#ecd3d6" vector-effect="non-scaling-stroke" d="
  M 280.99 399.48
  L 281.52 388.96
  Q 281.54 388.50 281.14 388.28
  Q 281.01 388.20 280.85 388.17"
/>
<path stroke="#e1ebfc" vector-effect="non-scaling-stroke" d="
  M 268.49 388.35
  Q 267.11 394.26 268.74 399.26"
/>
<path stroke="#a5cddd" vector-effect="non-scaling-stroke" d="
  M 268.74 399.26
  Q 260.56 399.26 252.31 399.33
  Q 243.56 399.40 239.37 400.91
  C 230.86 403.97 226.25 410.10 223.78 418.67
  Q 222.74 422.26 221.49 425.43"
/>
<path stroke="#868fa6" vector-effect="non-scaling-stroke" d="
  M 221.49 425.43
  Q 220.83 425.47 220.16 425.51"
/>
<path stroke="#a5cddd" vector-effect="non-scaling-stroke" d="
  M 220.16 425.51
  L 214.11 410.22"
/>
<path stroke="#eef5ff" vector-effect="non-scaling-stroke" d="
  M 214.11 410.22
  Q 226.30 405.04 237.19 396.39
  Q 239.24 394.76 240.41 392.40
  Q 241.52 390.16 242.65 387.67"
/>
<path stroke="#abd1dd" vector-effect="non-scaling-stroke" d="
  M 172.11 424.06
  Q 171.42 424.26 169.93 425.13
  C 168.51 425.96 167.70 427.50 168.25 429.01
  Q 171.86 438.88 175.28 448.29"
/>
<path stroke="#e7effc" vector-effect="non-scaling-stroke" d="
  M 175.28 448.29
  L 154.20 447.83"
/>
<path stroke="#abd1dd" vector-effect="non-scaling-stroke" d="
  M 214.11 410.22
  Q 210.91 409.72 209.38 410.52"
/>
<path stroke="#9ec7da" vector-effect="non-scaling-stroke" d="
  M 280.99 399.48
  L 268.74 399.26"
/>
<path stroke="#446c84" vector-effect="non-scaling-stroke" d="
  M 297.22 425.42
  L 221.49 425.43"
/>
<path stroke="#3f687c" vector-effect="non-scaling-stroke" d="
  M 376.86 425.41
  L 309.97 425.43"
/>
<path stroke="#446c84" vector-effect="non-scaling-stroke" d="
  M 309.97 425.43
  L 299.24 425.35"
/>
<path stroke="#446c84" vector-effect="non-scaling-stroke" d="
  M 220.16 425.51
  Q 213.39 425.47 205.25 425.60
  Q 197.82 425.71 198.80 433.01
  Q 205.17 480.45 211.51 529.21"
/>
<path stroke="#9ec7da" vector-effect="non-scaling-stroke" d="
  M 211.51 529.21
  Q 203.26 525.32 200.04 516.48
  Q 187.70 482.64 175.28 448.29"
/>
<path stroke="#808aa3" vector-effect="non-scaling-stroke" d="
  M 516.78 447.69
  Q 518.81 456.47 516.82 465.53
  A 0.11 0.11 0.0 0 0 517.02 465.62
  L 521.91 459.05
  A 1.43 1.42 63.0 0 0 522.19 458.17
  Q 522.12 453.19 524.45 449.08"
/>
<path stroke="#808aa3" vector-effect="non-scaling-stroke" d="
  M 536.56 448.38
  C 535.04 453.70 531.17 460.63 525.12 461.89
  A 1.06 1.05 62.2 0 1 524.16 461.59
  Q 523.21 460.59 522.25 461.73
  Q 515.36 469.87 512.42 479.20
  Q 512.20 479.90 512.80 479.46
  C 514.82 477.96 516.49 477.16 518.37 475.18
  C 523.07 470.21 530.82 468.18 537.68 470.18
  C 541.51 471.30 542.22 474.68 538.78 477.07
  C 533.94 480.42 523.17 483.62 518.33 478.54
  Q 517.98 478.18 517.53 478.40
  C 510.67 481.80 507.65 488.32 504.59 495.26
  Q 504.34 495.84 504.92 495.59
  C 507.04 494.68 508.29 494.25 510.16 492.62
  Q 518.56 485.31 529.68 488.50
  C 531.90 489.14 533.04 491.61 531.56 493.65
  C 527.77 498.83 513.87 501.72 509.33 496.37
  A 0.78 0.76 63.5 0 0 508.59 496.11
  C 501.86 497.48 499.38 504.85 498.12 511.48
  A 0.34 0.34 0.0 0 0 498.46 511.88
  Q 501.03 511.77 502.14 510.38
  Q 504.82 507.03 507.20 505.96
  C 510.98 504.26 521.87 502.18 524.61 506.49
  C 528.85 513.15 507.97 518.75 502.30 513.03
  Q 501.93 512.66 501.44 512.82
  Q 500.47 513.13 499.56 514.03"
/>
<path stroke="#445680" vector-effect="non-scaling-stroke" d="
  M 499.56 514.03
  Q 497.39 514.74 496.91 517.46"
/>
<path stroke="#517a90" vector-effect="non-scaling-stroke" d="
  M 496.91 517.46
  Q 495.43 518.26 494.21 517.65"
/>
<path stroke="#445680" vector-effect="non-scaling-stroke" d="
  M 494.21 517.65
  Q 495.76 514.89 494.06 512.58
  A 0.67 0.67 0.0 0 0 493.25 512.37
  C 486.23 515.53 474.96 504.62 474.89 497.67
  A 1.07 1.06 -19.9 0 1 475.28 496.85
  C 481.31 492.02 490.82 501.75 493.48 506.69
  C 494.21 508.04 494.14 509.70 494.91 511.21
  Q 495.20 511.77 495.63 511.31
  Q 496.81 510.00 496.70 508.09"
/>
<path stroke="#808aa3" vector-effect="non-scaling-stroke" d="
  M 496.70 508.09
  Q 500.68 502.18 497.33 496.37
  Q 497.07 495.93 496.56 495.91
  Q 492.23 495.68 488.35 491.83"
/>
<path stroke="#445680" vector-effect="non-scaling-stroke" d="
  M 488.35 491.83
  Q 484.97 488.01 483.30 482.92
  C 482.13 479.36 482.23 474.29 487.64 475.52"
/>
<path stroke="#808aa3" vector-effect="non-scaling-stroke" d="
  M 487.64 475.52
  C 493.64 479.07 498.41 485.17 498.45 492.39
  Q 498.46 495.73 500.34 498.72
  Q 500.63 499.18 500.87 498.69
  Q 504.04 492.22 507.35 485.79
  Q 509.39 481.84 506.64 478.07
  Q 506.36 477.69 505.88 477.69
  C 499.26 477.71 493.87 472.45 490.72 467.16"
/>
<path stroke="#445680" vector-effect="non-scaling-stroke" d="
  M 490.72 467.16
  C 489.09 464.03 488.14 459.05 493.68 459.20"
/>
<path stroke="#808aa3" vector-effect="non-scaling-stroke" d="
  M 493.68 459.20
  C 500.26 461.43 507.44 467.48 507.82 474.96
  C 507.92 476.93 508.74 478.33 509.53 480.02
  Q 509.82 480.63 510.10 480.01
  C 513.65 472.16 517.53 464.55 510.64 456.90
  Q 510.30 456.53 509.82 456.69
  C 503.85 458.76 496.56 450.89 493.56 445.91"
/>
<path stroke="#445680" vector-effect="non-scaling-stroke" d="
  M 493.56 445.91
  L 492.96 442.26"
/>
<path stroke="#3b4a72" vector-effect="non-scaling-stroke" d="
  M 506.5037 428.1719
  A 0.27 0.27 0.0 0 0 506.1368 428.0660
  L 505.8742 428.2110
  A 0.27 0.27 0.0 0 0 505.7683 428.5778
  L 511.3163 438.6281
  A 0.27 0.27 0.0 0 0 511.6832 438.7340
  L 511.9458 438.5890
  A 0.27 0.27 0.0 0 0 512.0517 438.2222
  L 506.5037 428.1719"
/>
<path stroke="#3b4a72" vector-effect="non-scaling-stroke" d="
  M 497.9301 442.8775
  A 0.26 0.26 0.0 0 0 497.5627 442.8634
  L 497.4599 442.9586
  A 0.26 0.26 0.0 0 0 497.4458 443.3260
  L 505.1099 451.6025
  A 0.26 0.26 0.0 0 0 505.4773 451.6166
  L 505.5801 451.5214
  A 0.26 0.26 0.0 0 0 505.5942 451.1540
  L 497.9301 442.8775"
/>
<path stroke="#3b4a72" vector-effect="non-scaling-stroke" d="
  M 532.8378 446.2416
  A 0.26 0.26 0.0 0 0 532.7570 445.8829
  L 532.5879 445.7761
  A 0.26 0.26 0.0 0 0 532.2292 445.8569
  L 525.7422 456.1184
  A 0.26 0.26 0.0 0 0 525.8230 456.4771
  L 525.9921 456.5839
  A 0.26 0.26 0.0 0 0 526.3508 456.5031
  L 532.8378 446.2416"
/>
<path stroke="#3b4a72" vector-effect="non-scaling-stroke" d="
  M 502.3393 472.3158
  A 0.26 0.26 0.0 0 0 502.3284 471.9482
  L 494.4831 464.5551
  A 0.26 0.26 0.0 0 0 494.1155 464.5660
  L 494.0607 464.6242
  A 0.26 0.26 0.0 0 0 494.0716 464.9918
  L 501.9169 472.3849
  A 0.26 0.26 0.0 0 0 502.2845 472.3740
  L 502.3393 472.3158"
/>
<path stroke="#3b4a72" vector-effect="non-scaling-stroke" d="
  M 533.4360 474.6275
  A 0.34 0.34 0.0 0 0 533.0504 474.3401
  L 522.4427 475.8876
  A 0.34 0.34 0.0 0 0 522.1554 476.2731
  L 522.1640 476.3325
  A 0.34 0.34 0.0 0 0 522.5496 476.6199
  L 533.1573 475.0724
  A 0.34 0.34 0.0 0 0 533.4446 474.6869
  L 533.4360 474.6275"
/>
<path stroke="#3b4a72" vector-effect="non-scaling-stroke" d="
  M 492.48 487.81
  L 492.75 487.60
  A 0.13 0.13 0.0 0 0 492.77 487.41
  L 487.88 481.20
  A 0.54 0.27 51.8 0 0 487.33 480.94
  L 487.28 480.98
  A 0.54 0.27 51.8 0 0 487.41 481.57
  L 492.30 487.78
  A 0.13 0.13 0.0 0 0 492.48 487.81"
/>
<path stroke="#334366" vector-effect="non-scaling-stroke" d="
  M 526.6759 492.5734
  A 0.46 0.46 0.0 0 0 526.1564 492.1819
  L 514.5900 493.8074
  A 0.46 0.46 0.0 0 0 514.1985 494.3270
  L 514.2041 494.3666
  A 0.46 0.46 0.0 0 0 514.7236 494.7581
  L 526.2900 493.1326
  A 0.46 0.46 0.0 0 0 526.6815 492.6130
  L 526.6759 492.5734"
/>
<path stroke="#3b4a72" vector-effect="non-scaling-stroke" d="
  M 489.08 507.40
  C 487.74 504.78 482.34 498.77 479.10 499.30
  A 0.31 0.31 0.0 0 0 479.06 499.90
  Q 485.32 501.90 488.51 507.75
  Q 488.61 507.94 488.95 507.78
  Q 489.21 507.66 489.08 507.40"
/>
<path stroke="#3b4a72" vector-effect="non-scaling-stroke" d="
  M 518.12 508.40
  C 514.21 508.42 510.62 509.58 506.85 510.45
  Q 506.72 510.48 506.67 510.57
  Q 506.60 510.69 506.65 510.86
  Q 506.72 511.12 507.00 511.09
  C 509.51 510.77 511.92 509.59 514.13 509.30
  Q 516.15 509.02 518.19 508.96
  Q 518.26 508.96 518.26 508.90
  L 518.28 508.56
  A 0.16 0.15 1.7 0 0 518.12 508.40"
/>
<path stroke="#212b45" vector-effect="non-scaling-stroke" d="
  M 309.97 425.43
  L 309.31 425.95
  A 0.57 0.56 49.2 0 0 309.26 426.79
  Q 321.36 439.23 329.41 454.42
  C 333.77 462.66 335.53 470.25 337.68 478.75
  C 340.00 487.97 339.95 497.74 339.12 507.16
  C 338.52 514.02 336.15 521.15 334.40 528.14
  Q 333.39 532.20 328.10 541.33
  A 1.67 1.67 0.0 0 0 327.87 542.28
  Q 327.99 544.24 326.25 544.23
  Q 269.92 544.03 213.50 544.04"
/>
<path stroke="#808aa3" vector-effect="non-scaling-stroke" d="
  M 213.50 544.04
  L 211.51 529.21"
/>
<path stroke="#334366" vector-effect="non-scaling-stroke" d="
  M 318.89 484.76
  A 15.85 15.85 0.0 0 0 303.04 468.91
  A 15.85 15.85 0.0 0 0 287.19 484.76
  A 15.85 15.85 0.0 0 0 303.04 500.61
  A 15.85 15.85 0.0 0 0 318.89 484.76"
/>
<path stroke="#2e405e" vector-effect="non-scaling-stroke" d="
  M 394.91 552.81
  L 343.57 552.86"
/>
<path stroke="#37466a" vector-effect="non-scaling-stroke" d="
  M 343.57 552.86
  L 209.05 552.86"
/>
<path stroke="#7b869b" vector-effect="non-scaling-stroke" d="
  M 209.05 552.86
  Q 205.02 549.60 207.29 545.96
  C 208.72 543.68 211.09 543.69 213.50 544.04"
/>
<path stroke="#9eb2d6" vector-effect="non-scaling-stroke" d="
  M 493.56 445.91
  Q 496.29 452.79 493.68 459.20"
/>
<path stroke="#9eb2d6" vector-effect="non-scaling-stroke" d="
  M 490.72 467.16
  L 487.64 475.52"
/>
<path stroke="#9eb2d6" vector-effect="non-scaling-stroke" d="
  M 488.35 491.83
  Q 491.75 500.55 496.70 508.09"
/>
<path stroke="#6fa2c3" vector-effect="non-scaling-stroke" d="
  M 494.21 517.65
  L 482.70 517.51"
/>
<path stroke="#96a5c8" vector-effect="non-scaling-stroke" d="
  M 209.05 552.86
  L 156.07 552.75"
/>
<path stroke="#7b869b" vector-effect="non-scaling-stroke" d="
  M 156.07 552.75
  Q 162.88 549.79 164.78 543.24
  Q 164.93 542.74 165.45 542.70
  C 176.22 541.96 176.74 527.38 165.37 525.39
  Q 164.84 525.30 165.00 524.79
  C 166.43 519.99 163.47 519.09 159.46 519.12
  Q 153.19 519.18 146.93 519.22"
/>
<path stroke="#808aa3" vector-effect="non-scaling-stroke" d="
  M 146.93 519.22
  L 134.27 519.18
  A 2.86 2.86 0.0 0 0 131.41 522.01
  Q 131.34 530.86 131.38 540.25
  Q 131.42 548.72 140.56 552.76"
/>
<path stroke="#96a5c8" vector-effect="non-scaling-stroke" d="
  M 140.56 552.76
  Q 103.85 552.79 67.57 552.80
  C 62.80 552.80 59.50 553.53 58.52 558.50
  Q 57.44 563.94 60.46 567.95"
/>
<path stroke="#edf2fc" vector-effect="non-scaling-stroke" d="
  M 148.39 495.91
  C 152.03 503.09 139.54 508.84 147.10 516.13
  A 0.86 0.86 0.0 0 0 148.44 515.08
  C 145.87 510.68 148.96 504.47 150.47 500.00
  Q 150.98 498.51 149.35 495.85
  Q 149.17 495.58 148.85 495.56
  Q 148.72 495.55 148.58 495.56
  Q 148.23 495.59 148.39 495.91"
/>
<path stroke="#edf2fc" vector-effect="non-scaling-stroke" d="
  M 140.24 502.72
  C 139.41 504.24 138.35 505.24 138.01 506.85
  Q 137.20 510.67 140.78 512.37
  A 0.53 0.52 -79.8 0 0 141.52 511.85
  C 141.37 510.06 140.44 508.49 140.55 506.86
  C 140.71 504.56 141.61 502.88 141.28 500.11
  A 0.30 0.30 0.0 0 0 140.71 500.02
  Q 140.30 500.96 140.39 501.99
  Q 140.42 502.38 140.24 502.72"
/>
<path stroke="#edf2fc" vector-effect="non-scaling-stroke" d="
  M 155.59 513.72
  Q 154.42 508.75 158.04 505.10
  A 1.15 1.14 -18.1 0 0 158.36 504.48
  L 158.58 503.26
  A 0.47 0.47 0.0 0 0 157.80 502.84
  Q 154.45 505.96 152.60 510.19
  C 152.04 511.48 152.85 512.78 153.49 513.95
  Q 154.06 514.98 155.10 514.61
  Q 155.74 514.38 155.59 513.72"
/>
<path stroke="#8d9fbc" vector-effect="non-scaling-stroke" d="
  M 547.42 567.95
  C 551.55 562.35 550.55 552.86 541.75 552.81
  Q 524.82 552.72 507.31 552.86"
/>
<path stroke="#abd6e6" vector-effect="non-scaling-stroke" d="
  M 507.31 552.86
  L 508.50 546.43"
/>
<path stroke="#9fcfde" vector-effect="non-scaling-stroke" d="
  M 508.50 546.43
  L 512.17 528.01"
/>
<path stroke="#abd6e6" vector-effect="non-scaling-stroke" d="
  M 512.17 528.01
  Q 517.44 527.72 516.34 521.22
  C 515.94 518.82 514.49 517.90 512.05 517.87
  Q 506.58 517.80 501.30 517.66"
/>
<path stroke="#9eb2d6" vector-effect="non-scaling-stroke" d="
  M 501.30 517.66
  Q 501.12 515.70 499.56 514.03"
/>
<path stroke="#6fa2c3" vector-effect="non-scaling-stroke" d="
  M 501.30 517.66
  L 496.91 517.46"
/>
<path stroke="#70bfcb" vector-effect="non-scaling-stroke" d="
  M 512.17 528.01
  L 477.08 527.65"
/>
<path stroke="#37466a" vector-effect="non-scaling-stroke" d="
  M 156.07 552.75
  L 146.65 553.00"
/>
<path stroke="#212b45" vector-effect="non-scaling-stroke" d="
  M 146.65 553.00
  Q 148.32 549.57 149.97 546.43
  Q 151.73 543.06 151.99 540.28
  C 152.59 533.88 150.95 526.36 146.36 521.51
  Q 144.99 520.06 146.93 519.22"
/>
<path stroke="#7b869b" vector-effect="non-scaling-stroke" d="
  M 165.21 528.23
  L 165.25 540.01
  A 0.14 0.14 0.0 0 0 165.39 540.15
  L 165.45 540.15
  A 5.90 5.70 89.8 0 0 171.13 534.23
  L 171.13 533.97
  A 5.90 5.70 89.8 0 0 165.41 528.09
  L 165.35 528.09
  A 0.14 0.14 0.0 0 0 165.21 528.23"
/>
<path stroke="#3b4a72" vector-effect="non-scaling-stroke" d="
  M 146.65 553.00
  L 140.56 552.76"
/>
<path stroke="#70bfcb" vector-effect="non-scaling-stroke" d="
  M 508.50 546.43
  Q 500.68 536.63 491.31 533.37
  Q 486.82 531.81 477.58 529.69"
/>
<path stroke="#5e8fa9" vector-effect="non-scaling-stroke" d="
  M 507.31 552.86
  L 482.35 552.83"
/>
<path stroke="#495f8b" vector-effect="non-scaling-stroke" d="
  M 343.57 552.86
  Q 355.42 560.21 363.22 569.53"
/>
</g>
<path fill="#ffffff" d="
  M 0.00 0.00
  L 298.24 0.00
  Q 298.18 26.29 298.16 52.60
  Q 298.16 52.72 298.26 53.39
  Q 298.46 54.74 296.06 54.76
  Q 278.97 55.35 264.31 61.59
  Q 219.45 80.69 206.69 128.12
  Q 164.15 127.87 121.91 128.02
  Q 107.83 128.06 102.50 129.53
  Q 92.39 132.32 85.41 140.17
  Q 68.14 159.58 78.63 183.02
  C 81.16 188.68 84.68 193.32 89.50 196.94
  Q 104.27 208.06 121.14 204.87
  C 130.44 206.51 140.07 204.37 148.75 206.57
  Q 161.17 209.72 168.75 220.35
  C 170.70 223.08 172.03 226.51 173.46 229.71
  C 175.43 234.11 180.28 232.51 183.94 232.39
  L 183.93 250.76
  Q 183.93 251.25 183.45 251.23
  L 174.13 251.01
  A 0.93 0.92 22.9 0 0 173.45 251.28
  Q 171.68 253.01 171.31 256.12
  Q 168.59 261.87 163.87 265.86
  Q 157.56 271.20 149.47 273.40
  Q 144.61 274.73 134.89 274.65
  Q 119.25 274.52 104.75 274.53
  Q 92.11 274.38 85.87 275.35
  C 72.51 277.44 60.59 285.50 53.03 296.42
  C 37.17 319.34 43.49 351.41 66.45 366.93
  C 77.89 374.66 90.47 376.17 104.84 375.32
  Q 119.24 375.90 131.37 382.42
  L 139.27 387.83
  Q 152.02 399.67 156.51 416.14
  C 157.92 421.33 158.69 426.43 157.61 431.81
  C 156.87 435.49 156.82 438.84 155.60 442.52
  Q 154.77 445.01 154.20 447.83
  Q 152.43 450.60 150.51 454.09
  C 140.75 471.87 121.95 481.00 101.76 480.87
  Q 93.87 480.81 69.48 480.92
  C 56.55 480.98 47.30 482.09 38.06 489.55
  C 20.84 503.48 15.50 526.49 25.94 546.06
  Q 35.31 563.62 56.50 568.84
  Q 59.21 569.50 60.46 567.95
  Q 62.43 569.50 64.00 569.51
  Q 138.76 569.69 363.22 569.53
  Q 486.18 569.72 543.75 569.51
  Q 545.36 569.50 547.42 567.95
  Q 548.24 569.04 550.22 568.62
  Q 569.26 564.60 582.06 552.21
  C 602.28 532.63 606.22 499.43 590.46 476.06
  Q 571.45 447.88 536.56 448.38
  Q 537.70 443.93 536.39 441.92
  C 532.98 436.70 526.00 445.71 524.45 449.08
  L 516.78 447.69
  Q 516.59 444.25 516.53 440.57
  Q 516.47 436.27 515.36 433.64
  C 513.95 430.31 508.57 422.69 504.37 423.57
  C 502.37 423.99 501.47 426.19 501.65 428.00
  C 502.24 434.05 507.04 443.68 514.01 444.73
  Q 514.48 444.81 514.61 445.27
  Q 516.62 452.86 515.80 460.74
  Q 515.70 461.68 515.27 460.84
  Q 514.26 458.88 513.03 457.04
  Q 511.85 455.26 511.11 452.73
  Q 508.51 443.82 499.83 439.57
  C 497.29 438.33 492.70 437.98 492.96 442.26
  Q 490.83 439.60 489.08 437.19
  C 487.17 434.56 479.07 428.90 476.13 430.84
  C 473.17 432.79 475.69 436.55 476.50 439.52
  Q 463.06 430.58 458.07 416.43
  Q 450.81 395.86 459.76 377.77
  C 466.35 364.43 478.18 354.71 492.63 350.98
  C 501.98 348.57 514.77 349.26 525.50 349.08
  C 540.20 348.84 555.58 339.43 564.17 327.79
  C 588.06 295.44 570.66 249.30 531.66 241.29
  Q 525.33 239.99 511.74 240.00
  Q 490.18 240.02 468.61 240.00
  Q 461.39 239.99 458.53 239.12
  C 447.63 235.83 442.72 222.86 449.35 213.32
  Q 454.90 205.33 464.73 205.41
  C 471.52 205.46 479.45 205.90 485.41 204.91
  C 496.78 203.02 506.44 196.70 512.41 186.75
  C 523.57 168.14 517.17 143.37 498.09 133.09
  C 487.65 127.46 479.80 128.12 464.89 128.05
  Q 429.76 127.91 394.61 128.01
  C 383.32 85.50 347.89 56.52 303.85 54.60
  Q 303.25 54.57 303.25 53.98
  L 303.00 0.00
  L 626.00 0.00
  L 626.00 626.00
  L 0.00 626.00
  L 0.00 0.00
  Z"
/>
<path fill="#64b8c2" d="
  M 298.24 0.00
  L 303.00 0.00
  L 303.25 53.98
  Q 303.25 54.57 303.85 54.60
  C 347.89 56.52 383.32 85.50 394.61 128.01
  Q 397.16 140.12 397.06 143.52
  Q 396.83 151.44 388.50 151.24
  Q 379.30 151.03 347.36 151.22
  L 335.58 151.41
  L 306.66 151.21
  Q 318.32 139.07 322.87 128.62
  Q 327.69 117.57 326.85 104.74
  Q 325.33 81.89 309.60 66.14
  Q 306.79 63.33 296.06 54.76
  Q 298.46 54.74 298.26 53.39
  Q 298.16 52.72 298.16 52.60
  Q 298.18 26.29 298.24 0.00
  Z"
/>
<path fill="#7cc6d3" d="
  M 296.06 54.76
  Q 306.79 63.33 309.60 66.14
  Q 325.33 81.89 326.85 104.74
  Q 327.69 117.57 322.87 128.62
  Q 318.32 139.07 306.66 151.21
  L 265.78 151.38
  L 253.67 151.21
  Q 233.15 151.02 211.74 151.37
  C 205.73 151.47 203.93 146.79 204.54 141.41
  Q 205.26 135.09 206.69 128.12
  Q 219.45 80.69 264.31 61.59
  Q 278.97 55.35 296.06 54.76
  Z"
/>
<path fill="#dae5f9" d="
  M 476.50 439.52
  Q 478.74 445.95 477.12 453.27
  C 475.23 461.81 469.40 472.16 467.67 479.98
  Q 462.61 502.81 482.70 517.51
  Q 481.48 518.01 477.50 517.65
  Q 474.11 517.34 473.40 520.99
  Q 472.12 527.53 477.08 527.65
  L 477.58 529.69
  L 482.35 552.83
  L 394.91 552.81
  Q 399.21 549.53 396.32 545.17
  Q 396.01 544.69 395.46 544.52
  L 393.08 543.77
  Q 392.57 543.62 392.64 543.09
  Q 399.85 488.73 407.03 434.37
  C 407.65 429.70 406.74 425.32 401.25 425.37
  Q 388.62 425.47 376.86 425.41
  Q 376.03 406.65 360.45 400.97
  C 353.07 398.28 342.69 399.16 334.37 399.31
  A 1.50 1.48 13.4 0 0 333.09 400.09
  C 330.88 404.25 329.74 408.13 329.66 413.15
  C 329.61 416.62 330.29 421.47 329.31 424.75
  A 0.50 0.49 -36.1 0 1 328.34 424.60
  C 328.38 422.94 328.94 421.15 328.73 419.47
  Q 327.51 409.26 331.95 399.92
  Q 332.22 399.34 331.58 399.34
  L 326.65 399.35
  Q 325.68 399.10 325.63 397.58
  Q 325.50 392.81 325.27 387.86
  Q 333.70 388.80 341.63 388.01
  Q 342.12 387.96 342.48 387.62
  Q 345.41 384.85 348.52 382.28
  C 365.27 368.42 365.31 349.98 363.14 330.08
  L 364.45 329.53
  Q 365.85 344.42 364.30 356.50
  C 362.56 370.00 354.76 378.33 344.48 386.87
  Q 343.55 387.64 344.75 387.57
  Q 357.09 386.85 364.82 377.06
  Q 365.58 379.06 368.00 379.02
  Q 393.75 378.66 419.50 378.78
  Q 424.62 378.80 429.60 378.55
  A 0.63 0.63 0.0 0 0 430.20 377.93
  Q 430.33 344.64 430.26 311.18
  C 430.25 309.43 430.56 306.54 429.99 304.49
  A 2.03 2.02 82.3 0 0 428.04 303.00
  Q 398.70 302.96 369.37 302.66
  Q 366.24 302.63 362.93 303.03
  Q 360.34 289.28 356.49 279.74
  C 351.74 267.99 341.55 259.93 330.16 255.11
  Q 329.68 254.90 329.84 254.40
  Q 334.17 240.84 326.98 230.03
  C 313.21 209.33 282.74 214.42 275.86 238.27
  Q 273.86 246.55 276.53 254.94
  Q 276.69 255.46 276.21 255.72
  L 269.37 259.37
  Q 268.13 256.29 265.36 256.30
  Q 227.57 256.45 189.64 256.38
  Q 189.07 256.38 189.08 256.94
  L 189.29 279.00
  L 188.85 316.19
  A 0.46 0.46 0.0 0 0 189.31 316.66
  L 219.35 316.59
  L 236.37 317.00
  Q 237.05 320.06 235.72 322.14
  L 213.24 322.21
  L 189.65 322.16
  A 0.77 0.77 0.0 0 0 188.88 322.93
  L 188.66 372.37
  Q 186.46 371.70 184.21 372.02
  L 183.97 322.81
  A 0.76 0.75 90.0 0 0 183.22 322.05
  L 154.09 322.14
  L 105.07 322.12
  A 0.47 0.46 -0.6 0 0 104.60 322.59
  L 104.65 352.28
  L 104.84 375.32
  C 90.47 376.17 77.89 374.66 66.45 366.93
  C 43.49 351.41 37.17 319.34 53.03 296.42
  C 60.59 285.50 72.51 277.44 85.87 275.35
  Q 92.11 274.38 104.75 274.53
  L 104.58 316.20
  Q 104.58 316.68 105.05 316.68
  L 158.45 316.64
  L 183.57 316.79
  Q 183.90 316.79 183.90 316.46
  L 183.90 283.12
  L 183.97 257.09
  A 0.82 0.81 -89.6 0 0 183.17 256.27
  L 171.31 256.12
  Q 171.68 253.01 173.45 251.28
  A 0.93 0.92 22.9 0 1 174.13 251.01
  L 183.45 251.23
  Q 183.93 251.25 183.93 250.76
  L 183.94 232.39
  L 183.90 172.75
  Q 183.90 172.17 183.31 172.13
  Q 182.08 172.04 180.23 172.22
  Q 143.56 175.87 121.14 204.87
  Q 104.27 208.06 89.50 196.94
  C 84.68 193.32 81.16 188.68 78.63 183.02
  Q 68.14 159.58 85.41 140.17
  Q 92.39 132.32 102.50 129.53
  Q 107.83 128.06 121.91 128.02
  Q 164.15 127.87 206.69 128.12
  Q 205.26 135.09 204.54 141.41
  C 203.93 146.79 205.73 151.47 211.74 151.37
  Q 233.15 151.02 253.67 151.21
  Q 258.98 164.98 269.08 172.92
  C 283.23 184.05 303.88 187.87 320.73 179.82
  Q 324.70 177.93 328.44 175.64
  Q 332.77 173.00 336.65 168.82
  C 341.85 163.21 345.59 158.73 347.36 151.22
  Q 379.30 151.03 388.50 151.24
  Q 396.83 151.44 397.06 143.52
  Q 397.16 140.12 394.61 128.01
  Q 429.76 127.91 464.89 128.05
  C 479.80 128.12 487.65 127.46 498.09 133.09
  C 517.17 143.37 523.57 168.14 512.41 186.75
  C 506.44 196.70 496.78 203.02 485.41 204.91
  C 479.45 205.90 471.52 205.46 464.73 205.41
  Q 454.90 205.33 449.35 213.32
  C 442.72 222.86 447.63 235.83 458.53 239.12
  Q 461.39 239.99 468.61 240.00
  Q 490.18 240.02 511.74 240.00
  Q 525.33 239.99 531.66 241.29
  C 570.66 249.30 588.06 295.44 564.17 327.79
  C 555.58 339.43 540.20 348.84 525.50 349.08
  C 514.77 349.26 501.98 348.57 492.63 350.98
  C 478.18 354.71 466.35 364.43 459.76 377.77
  Q 450.81 395.86 458.07 416.43
  Q 463.06 430.58 476.50 439.52
  Z
  M 189.04 232.95
  L 189.04 250.40
  Q 189.04 251.04 189.69 251.04
  L 267.26 251.03
  Q 267.72 251.03 267.84 250.59
  C 268.24 249.05 267.67 247.45 267.56 246.30
  Q 265.43 223.78 251.65 205.06
  Q 249.86 202.41 246.35 198.66
  Q 223.66 174.44 190.27 172.17
  Q 188.96 172.08 188.97 173.39
  L 189.04 232.95
  Z
  M 423.3843 200.4604
  A 1.05 1.05 0.0 0 0 422.3362 199.4085
  L 366.7962 199.3116
  A 1.05 1.05 0.0 0 0 365.7444 200.3598
  L 365.5957 285.5796
  A 1.05 1.05 0.0 0 0 366.6438 286.6315
  L 422.1838 286.7284
  A 1.05 1.05 0.0 0 0 423.2356 285.6802
  L 423.3843 200.4604
  Z
  M 443.81 265.56
  C 444.40 279.34 443.99 293.08 443.99 306.87
  Q 443.99 307.39 443.80 307.87
  Q 443.44 308.78 443.72 309.65
  Q 443.89 310.16 444.43 310.17
  Q 473.09 310.43 501.75 310.19
  C 504.14 310.17 507.13 310.70 510.08 309.79
  Q 510.47 309.67 510.47 309.27
  L 510.36 265.99
  A 1.75 1.75 0.0 0 0 508.61 264.25
  L 445.03 264.29
  Q 443.76 264.29 443.81 265.56
  Z"
/>
<path fill="#bacde9" d="
  M 253.67 151.21
  L 265.78 151.38
  C 282.09 180.04 319.52 180.17 335.58 151.41
  L 347.36 151.22
  C 345.59 158.73 341.85 163.21 336.65 168.82
  Q 332.77 173.00 328.44 175.64
  Q 324.70 177.93 320.73 179.82
  C 303.88 187.87 283.23 184.05 269.08 172.92
  Q 258.98 164.98 253.67 151.21
  Z"
/>
<path fill="#40587e" d="
  M 306.66 151.21
  L 335.58 151.41
  C 319.52 180.17 282.09 180.04 265.78 151.38
  L 306.66 151.21
  Z"
/>
<path fill="#e7f0ff" d="
  M 183.94 232.39
  C 180.28 232.51 175.43 234.11 173.46 229.71
  C 172.03 226.51 170.70 223.08 168.75 220.35
  Q 161.17 209.72 148.75 206.57
  C 140.07 204.37 130.44 206.51 121.14 204.87
  Q 143.56 175.87 180.23 172.22
  Q 182.08 172.04 183.31 172.13
  Q 183.90 172.17 183.90 172.75
  L 183.94 232.39
  Z"
/>
<path fill="#e7f0ff" d="
  M 251.65 205.06
  Q 247.03 208.29 242.08 214.33
  Q 236.33 221.35 228.04 227.34
  C 219.59 233.44 209.21 234.05 199.18 233.42
  Q 194.15 233.10 189.04 232.95
  L 188.97 173.39
  Q 188.96 172.08 190.27 172.17
  Q 223.66 174.44 246.35 198.66
  Q 249.86 202.41 251.65 205.06
  Z"
/>
<path fill="#bacde9" d="
  M 423.2356 285.6802
  A 1.05 1.05 0.0 0 1 422.1838 286.7284
  L 366.6438 286.6315
  A 1.05 1.05 0.0 0 1 365.5957 285.5796
  L 365.7444 200.3598
  A 1.05 1.05 0.0 0 1 366.7962 199.3116
  L 422.3362 199.4085
  A 1.05 1.05 0.0 0 1 423.3843 200.4604
  L 423.2356 285.6802
  Z
  M 402.12 204.49
  L 393.08 204.29
  L 371.15 204.29
  Q 370.62 204.29 370.62 204.82
  L 370.80 243.77
  L 370.90 262.80
  L 370.86 281.03
  A 0.86 0.86 0.0 0 0 371.74 281.89
  Q 394.99 281.32 418.21 282.58
  Q 418.66 282.60 418.65 282.16
  L 418.19 229.80
  L 418.15 214.38
  L 418.25 205.34
  A 1.19 1.18 -0.2 0 0 417.03 204.14
  L 402.12 204.49
  Z"
/>
<path fill="#dae5f9" d="
  M 418.15 214.38
  Q 413.45 214.69 411.92 216.41
  C 409.60 219.01 406.09 223.99 402.20 223.08
  C 396.32 221.70 402.98 213.11 402.53 209.77
  Q 402.17 207.15 402.12 204.49
  L 417.03 204.14
  A 1.19 1.18 -0.2 0 1 418.25 205.34
  L 418.15 214.38
  Z"
/>
<path fill="#dae5f9" d="
  M 393.08 204.29
  Q 395.69 210.88 393.17 216.61
  C 391.80 219.74 387.45 222.09 384.80 224.43
  A 2.58 2.58 0.0 0 0 384.47 227.94
  C 386.71 230.84 390.45 230.99 391.50 235.46
  Q 391.60 235.93 391.39 236.35
  C 389.55 240.01 387.00 241.20 382.80 241.86
  Q 376.79 242.79 370.80 243.77
  L 370.62 204.82
  Q 370.62 204.29 371.15 204.29
  L 393.08 204.29
  Z"
/>
<path fill="#e7f0ff" d="
  M 393.08 204.29
  L 402.12 204.49
  Q 402.17 207.15 402.53 209.77
  C 402.98 213.11 396.32 221.70 402.20 223.08
  C 406.09 223.99 409.60 219.01 411.92 216.41
  Q 413.45 214.69 418.15 214.38
  L 418.19 229.80
  Q 407.71 228.32 402.27 237.76
  Q 398.97 243.50 400.43 248.52
  C 401.53 252.27 403.29 257.28 402.14 260.80
  C 398.73 271.29 384.62 261.72 377.90 261.77
  Q 374.59 261.79 370.90 262.80
  L 370.80 243.77
  Q 376.79 242.79 382.80 241.86
  C 387.00 241.20 389.55 240.01 391.39 236.35
  Q 391.60 235.93 391.50 235.46
  C 390.45 230.99 386.71 230.84 384.47 227.94
  A 2.58 2.58 0.0 0 1 384.80 224.43
  C 387.45 222.09 391.80 219.74 393.17 216.61
  Q 395.69 210.88 393.08 204.29
  Z"
/>
<path fill="#f4f9ff" d="
  M 251.65 205.06
  Q 265.43 223.78 267.56 246.30
  C 267.67 247.45 268.24 249.05 267.84 250.59
  Q 267.72 251.03 267.26 251.03
  L 189.69 251.04
  Q 189.04 251.04 189.04 250.40
  L 189.04 232.95
  Q 194.15 233.10 199.18 233.42
  C 209.21 234.05 219.59 233.44 228.04 227.34
  Q 236.33 221.35 242.08 214.33
  Q 247.03 208.29 251.65 205.06
  Z"
/>
<path fill="#1c273d" d="
  M 362.93 303.03
  L 364.08 307.84
  L 363.66 308.73
  L 362.06 308.05
  Q 361.66 307.87 361.74 308.30
  L 363.02 314.71
  C 360.43 316.37 359.33 318.75 362.17 321.04
  A 1.11 1.08 -73.1 0 1 362.56 321.79
  L 363.14 330.08
  C 365.31 349.98 365.27 368.42 348.52 382.28
  Q 345.41 384.85 342.48 387.62
  Q 342.12 387.96 341.63 388.01
  Q 333.70 388.80 325.27 387.86
  L 324.96 378.52
  A 0.77 0.76 -13.0 0 1 325.42 377.79
  C 347.84 367.84 361.37 346.76 360.26 322.20
  C 360.02 316.90 360.54 310.95 359.79 305.30
  Q 359.72 304.76 359.18 304.75
  L 353.46 304.66
  L 352.37 304.61
  Q 351.88 304.59 351.91 304.11
  Q 352.25 298.35 350.41 292.86
  Q 346.40 280.90 339.24 270.51
  C 331.60 259.42 319.14 251.02 307.13 245.41
  C 300.22 242.19 291.77 239.88 283.95 237.54
  Q 280.05 236.36 279.98 236.36
  Q 277.93 236.27 275.86 238.27
  C 282.74 214.42 313.21 209.33 326.98 230.03
  Q 334.17 240.84 329.84 254.40
  Q 329.68 254.90 330.16 255.11
  C 341.55 259.93 351.74 267.99 356.49 279.74
  Q 360.34 289.28 362.93 303.03
  Z"
/>
<path fill="#dae5f9" d="
  M 418.19 229.80
  L 418.65 282.16
  Q 418.66 282.60 418.21 282.58
  Q 394.99 281.32 371.74 281.89
  A 0.86 0.86 0.0 0 1 370.86 281.03
  L 370.90 262.80
  Q 374.59 261.79 377.90 261.77
  C 384.62 261.72 398.73 271.29 402.14 260.80
  C 403.29 257.28 401.53 252.27 400.43 248.52
  Q 398.97 243.50 402.27 237.76
  Q 407.71 228.32 418.19 229.80
  Z"
/>
<path fill="#252e4d" d="
  M 353.46 304.66
  L 349.17 304.64
  A 0.97 0.95 -11.6 0 1 348.31 304.08
  L 342.76 291.69
  A 0.27 0.27 0.0 0 0 342.25 291.82
  L 343.55 304.18
  A 0.48 0.48 0.0 0 1 343.07 304.71
  L 318.72 304.72
  Q 318.22 304.72 318.22 304.22
  L 318.22 291.29
  A 0.26 0.26 0.0 0 0 317.72 291.20
  L 313.05 304.22
  A 0.75 0.74 -79.9 0 1 312.35 304.71
  L 277.98 304.72
  Q 277.49 304.72 277.50 304.23
  L 277.69 287.51
  Q 277.73 284.40 276.65 287.31
  L 270.31 304.32
  A 0.62 0.61 -79.5 0 1 269.74 304.72
  L 249.74 304.72
  Q 247.86 304.72 247.83 306.61
  C 247.65 316.92 246.92 328.22 248.98 337.38
  Q 255.01 364.23 280.98 377.30
  A 0.92 0.91 14.1 0 1 281.48 378.13
  L 281.37 382.87
  Q 268.05 378.97 264.73 377.72
  Q 251.72 372.85 246.30 358.45
  Q 241.32 345.26 243.04 329.34
  Q 243.10 328.77 243.61 329.04
  L 244.85 329.72
  Q 245.40 330.02 245.31 329.40
  C 244.81 325.94 244.00 322.87 245.32 319.47
  C 245.94 317.88 245.66 316.89 244.90 315.52
  L 245.97 308.82
  Q 246.06 308.21 245.45 308.31
  Q 243.90 308.56 243.97 307.89
  L 245.38 300.98
  C 247.46 290.44 250.65 277.71 257.61 269.26
  Q 262.67 263.69 269.37 259.37
  L 276.21 255.72
  Q 276.69 255.46 276.53 254.94
  Q 273.86 246.55 275.86 238.27
  Q 277.93 236.27 279.98 236.36
  Q 280.05 236.36 283.95 237.54
  C 291.77 239.88 300.22 242.19 307.13 245.41
  C 319.14 251.02 331.60 259.42 339.24 270.51
  Q 346.40 280.90 350.41 292.86
  Q 352.25 298.35 351.91 304.11
  Q 351.88 304.59 352.37 304.61
  L 353.46 304.66
  Z"
/>
<path fill="#f4f9ff" d="
  M 171.31 256.12
  L 183.17 256.27
  A 0.82 0.81 -89.6 0 1 183.97 257.09
  L 183.90 283.12
  Q 172.29 288.35 166.06 298.01
  Q 161.08 305.75 158.45 316.64
  L 105.05 316.68
  Q 104.58 316.68 104.58 316.20
  L 104.75 274.53
  Q 119.25 274.52 134.89 274.65
  Q 144.61 274.73 149.47 273.40
  Q 157.56 271.20 163.87 265.86
  Q 168.59 261.87 171.31 256.12
  Z"
/>
<path fill="#f4f9ff" d="
  M 269.37 259.37
  Q 262.67 263.69 257.61 269.26
  C 257.13 268.34 256.09 268.13 255.11 268.48
  C 246.44 271.50 237.21 271.69 229.63 272.66
  Q 218.54 274.07 207.43 275.33
  Q 204.10 275.70 199.24 277.07
  Q 194.36 278.44 189.29 279.00
  L 189.08 256.94
  Q 189.07 256.38 189.64 256.38
  Q 227.57 256.45 265.36 256.30
  Q 268.13 256.29 269.37 259.37
  Z"
/>
<path fill="#bacde9" d="
  M 443.99 306.87
  C 443.99 293.08 444.40 279.34 443.81 265.56
  Q 443.76 264.29 445.03 264.29
  L 508.61 264.25
  A 1.75 1.75 0.0 0 1 510.36 265.99
  L 510.47 309.27
  Q 510.47 309.67 510.08 309.79
  C 507.13 310.70 504.14 310.17 501.75 310.19
  Q 473.09 310.43 444.43 310.17
  Q 443.89 310.16 443.72 309.65
  Q 443.44 308.78 443.80 307.87
  Q 443.99 307.39 443.99 306.87
  Z
  M 449.33 289.46
  L 449.30 294.52
  L 449.26 304.67
  A 0.60 0.59 0.0 0 0 449.86 305.26
  L 504.73 305.24
  A 0.47 0.47 0.0 0 0 505.20 304.77
  L 505.38 269.90
  Q 505.38 269.37 504.85 269.37
  L 499.86 269.36
  L 494.71 269.28
  L 449.54 269.21
  Q 448.98 269.21 448.99 269.78
  L 449.33 289.46
  Z"
/>
<path fill="#e7f0ff" d="
  M 257.61 269.26
  C 250.65 277.71 247.46 290.44 245.38 300.98
  Q 245.25 300.82 245.09 300.81
  Q 244.87 300.79 244.89 301.02
  Q 244.90 301.25 244.77 301.39
  Q 244.74 301.42 244.70 301.43
  Q 233.59 303.72 226.27 308.49
  Q 222.69 310.83 219.35 316.59
  L 189.31 316.66
  A 0.46 0.46 0.0 0 1 188.85 316.19
  L 189.29 279.00
  Q 194.36 278.44 199.24 277.07
  Q 204.10 275.70 207.43 275.33
  Q 218.54 274.07 229.63 272.66
  C 237.21 271.69 246.44 271.50 255.11 268.48
  C 256.09 268.13 257.13 268.34 257.61 269.26
  Z"
/>
<path fill="#dae5f9" d="
  M 494.71 269.28
  Q 494.59 277.88 488.35 279.89
  C 483.94 281.31 476.18 279.46 470.91 278.69
  C 464.33 277.73 461.00 282.81 457.01 286.51
  Q 454.99 288.39 449.33 289.46
  L 448.99 269.78
  Q 448.98 269.21 449.54 269.21
  L 494.71 269.28
  Z"
/>
<path fill="#e7f0ff" d="
  M 494.71 269.28
  L 499.86 269.36
  Q 499.19 274.46 495.99 278.14
  Q 494.78 279.55 494.60 280.34
  C 493.82 283.86 501.13 286.52 501.02 290.76
  Q 500.86 297.35 501.60 304.06
  A 0.83 0.83 0.0 0 1 501.03 304.94
  Q 499.01 305.60 497.26 304.60
  Q 496.84 304.36 496.87 303.88
  Q 497.15 299.51 496.03 297.01
  C 493.37 291.05 486.88 293.83 482.10 294.44
  C 476.45 295.15 474.85 286.69 470.12 285.55
  C 465.88 284.53 460.95 289.65 456.67 293.18
  Q 452.70 296.44 449.30 294.52
  L 449.33 289.46
  Q 454.99 288.39 457.01 286.51
  C 461.00 282.81 464.33 277.73 470.91 278.69
  C 476.18 279.46 483.94 281.31 488.35 279.89
  Q 494.59 277.88 494.71 269.28
  Z"
/>
<path fill="#dae5f9" d="
  M 499.86 269.36
  L 504.85 269.37
  Q 505.38 269.37 505.38 269.90
  L 505.20 304.77
  A 0.47 0.47 0.0 0 1 504.73 305.24
  L 449.86 305.26
  A 0.60 0.59 0.0 0 1 449.26 304.67
  L 449.30 294.52
  Q 452.70 296.44 456.67 293.18
  C 460.95 289.65 465.88 284.53 470.12 285.55
  C 474.85 286.69 476.45 295.15 482.10 294.44
  C 486.88 293.83 493.37 291.05 496.03 297.01
  Q 497.15 299.51 496.87 303.88
  Q 496.84 304.36 497.26 304.60
  Q 499.01 305.60 501.03 304.94
  A 0.83 0.83 0.0 0 0 501.60 304.06
  Q 500.86 297.35 501.02 290.76
  C 501.13 286.52 493.82 283.86 494.60 280.34
  Q 494.78 279.55 495.99 278.14
  Q 499.19 274.46 499.86 269.36
  Z"
/>
<path fill="#e7f0ff" d="
  M 183.90 283.12
  L 183.90 316.46
  Q 183.90 316.79 183.57 316.79
  L 158.45 316.64
  Q 161.08 305.75 166.06 298.01
  Q 172.29 288.35 183.90 283.12
  Z"
/>
<path fill="#fec0b2" d="
  M 353.46 304.66
  L 359.18 304.75
  Q 359.72 304.76 359.79 305.30
  C 360.54 310.95 360.02 316.90 360.26 322.20
  C 361.37 346.76 347.84 367.84 325.42 377.79
  A 0.77 0.76 -13.0 0 0 324.96 378.52
  L 325.27 387.86
  Q 325.50 392.81 325.63 397.58
  Q 325.68 399.10 326.65 399.35
  Q 325.99 399.33 325.93 399.76
  Q 322.71 423.88 298.29 422.19
  Q 296.64 415.43 296.82 412.50
  C 297.29 404.52 296.58 394.37 290.26 388.53
  Q 289.09 387.45 288.01 386.31
  Q 286.66 384.87 284.93 384.23
  Q 283.11 383.55 281.37 382.87
  L 281.48 378.13
  A 0.92 0.91 14.1 0 0 280.98 377.30
  Q 255.01 364.23 248.98 337.38
  C 246.92 328.22 247.65 316.92 247.83 306.61
  Q 247.86 304.72 249.74 304.72
  L 269.74 304.72
  A 0.62 0.61 -79.5 0 0 270.31 304.32
  L 276.65 287.31
  Q 277.73 284.40 277.69 287.51
  L 277.50 304.23
  Q 277.49 304.72 277.98 304.72
  L 312.35 304.71
  A 0.75 0.74 -79.9 0 0 313.05 304.22
  L 317.72 291.20
  A 0.26 0.26 0.0 0 1 318.22 291.29
  L 318.22 304.22
  Q 318.22 304.72 318.72 304.72
  L 343.07 304.71
  A 0.48 0.48 0.0 0 0 343.55 304.18
  L 342.25 291.82
  A 0.27 0.27 0.0 0 1 342.76 291.69
  L 348.31 304.08
  A 0.97 0.95 -11.6 0 0 349.17 304.64
  L 353.46 304.66
  Z
  M 273.92 316.08
  C 275.23 311.98 278.04 309.75 282.37 309.14
  A 0.45 0.44 -1.0 0 0 282.75 308.76
  Q 282.76 308.63 282.78 308.50
  Q 282.83 308.02 282.35 308.06
  Q 275.43 308.71 273.10 315.27
  Q 272.89 315.85 273.10 316.19
  A 0.46 0.45 -52.3 0 0 273.92 316.08
  Z
  M 332.04 312.47
  C 332.80 313.39 333.36 315.09 334.30 316.13
  A 0.41 0.41 0.0 0 0 334.99 315.73
  Q 332.82 308.77 325.50 308.02
  A 0.45 0.45 0.0 0 0 325.01 308.50
  Q 325.05 309.07 325.45 309.10
  Q 329.53 309.47 332.04 312.47
  Z
  M 282.5311 323.5800
  A 5.08 3.41 90.1 0 0 285.9500 318.5060
  A 5.08 3.41 90.1 0 0 282.5489 313.4200
  A 5.08 3.41 90.1 0 0 279.1300 318.4940
  A 5.08 3.41 90.1 0 0 282.5311 323.5800
  Z
  M 325.3445 323.5899
  A 5.08 3.43 90.4 0 0 328.8099 318.5339
  A 5.08 3.43 90.4 0 0 325.4155 313.4301
  A 5.08 3.43 90.4 0 0 321.9501 318.4861
  A 5.08 3.43 90.4 0 0 325.3445 323.5899
  Z
  M 304.54 339.90
  Q 300.71 338.58 301.43 335.80
  Q 302.34 332.27 302.92 328.77
  A 0.08 0.07 63.9 0 0 302.78 328.72
  Q 300.38 333.13 300.55 338.10
  A 1.29 1.28 -74.5 0 0 301.12 339.11
  Q 302.66 340.12 304.49 340.16
  Q 305.35 340.18 304.54 339.90
  Z
  M 314.08 356.92
  L 293.88 356.92
  A 0.13 0.13 0.0 0 0 293.75 357.05
  L 293.75 357.10
  A 10.14 10.00 -0.0 0 0 303.89 367.10
  L 304.07 367.10
  A 10.14 10.00 0.0 0 0 314.21 357.10
  L 314.21 357.05
  A 0.13 0.13 0.0 0 0 314.08 356.92
  Z"
/>
<path fill="#f4f9ff" d="
  M 245.38 300.98
  L 243.97 307.89
  C 241.78 309.64 239.74 310.79 238.29 313.26
  Q 237.18 315.16 236.37 317.00
  L 219.35 316.59
  Q 222.69 310.83 226.27 308.49
  Q 233.59 303.72 244.70 301.43
  Q 244.74 301.42 244.77 301.39
  Q 244.90 301.25 244.89 301.02
  Q 244.87 300.79 245.09 300.81
  Q 245.25 300.82 245.38 300.98
  Z"
/>
<path fill="#bacde9" d="
  M 364.82 377.06
  L 366.22 374.31
  L 383.02 373.91
  L 424.74 374.12
  Q 425.25 374.12 425.25 373.61
  L 425.24 357.28
  L 425.22 345.54
  L 425.19 308.36
  Q 425.19 307.80 424.63 307.80
  L 387.16 308.03
  L 376.38 307.98
  L 364.08 307.84
  L 362.93 303.03
  Q 366.24 302.63 369.37 302.66
  Q 398.70 302.96 428.04 303.00
  A 2.03 2.02 82.3 0 1 429.99 304.49
  C 430.56 306.54 430.25 309.43 430.26 311.18
  Q 430.33 344.64 430.20 377.93
  A 0.63 0.63 0.0 0 1 429.60 378.55
  Q 424.62 378.80 419.50 378.78
  Q 393.75 378.66 368.00 379.02
  Q 365.58 379.06 364.82 377.06
  Z"
/>
<path fill="#fec0b2" d="
  M 243.97 307.89
  Q 243.90 308.56 245.45 308.31
  Q 246.06 308.21 245.97 308.82
  L 244.90 315.52
  Q 242.77 314.80 240.78 315.54
  Q 240.26 315.74 240.01 316.23
  Q 238.51 319.25 240.92 321.34
  A 1.27 1.23 19.9 0 1 241.36 322.24
  L 241.62 328.23
  Q 241.24 328.07 241.05 328.34
  Q 239.47 326.61 236.96 322.29
  Q 236.36 321.27 235.72 322.14
  Q 237.05 320.06 236.37 317.00
  Q 237.18 315.16 238.29 313.26
  C 239.74 310.79 241.78 309.64 243.97 307.89
  Z"
/>
<path fill="#fec0b2" d="
  M 363.66 308.73
  Q 372.61 311.94 370.93 321.93
  Q 370.41 324.99 366.75 328.43
  L 365.79 328.41
  L 365.11 327.38
  Q 364.86 327.00 364.87 326.55
  L 364.98 321.61
  A 0.82 0.79 68.4 0 1 365.20 321.08
  Q 369.66 316.41 363.02 314.71
  L 361.74 308.30
  Q 361.66 307.87 362.06 308.05
  L 363.66 308.73
  Z"
/>
<path fill="#dae5f9" d="
  M 376.38 307.98
  Q 377.11 313.75 377.21 319.78
  C 377.33 326.18 382.29 326.73 385.30 330.59
  C 389.88 336.49 382.68 341.52 378.18 344.93
  C 374.43 347.76 375.99 352.56 376.67 356.50
  C 377.80 363.15 375.96 368.11 368.07 368.01
  Q 368.91 348.18 366.75 328.43
  Q 370.41 324.99 370.93 321.93
  Q 372.61 311.94 363.66 308.73
  L 364.08 307.84
  L 376.38 307.98
  Z"
/>
<path fill="#dae5f9" d="
  M 425.22 345.54
  Q 419.95 346.29 415.50 350.30
  Q 412.83 352.70 411.19 353.29
  C 401.63 356.75 394.12 346.80 398.36 338.11
  C 401.22 332.27 409.04 320.77 398.56 317.99
  C 392.38 316.36 388.80 314.70 387.16 308.03
  L 424.63 307.80
  Q 425.19 307.80 425.19 308.36
  L 425.22 345.54
  Z"
/>
<path fill="#252e4d" d="
  M 282.37 309.14
  C 278.04 309.75 275.23 311.98 273.92 316.08
  A 0.46 0.45 -52.3 0 1 273.10 316.19
  Q 272.89 315.85 273.10 315.27
  Q 275.43 308.71 282.35 308.06
  Q 282.83 308.02 282.78 308.50
  Q 282.76 308.63 282.75 308.76
  A 0.45 0.44 -1.0 0 1 282.37 309.14
  Z"
/>
<path fill="#252e4d" d="
  M 332.04 312.47
  Q 329.53 309.47 325.45 309.10
  Q 325.05 309.07 325.01 308.50
  A 0.45 0.45 0.0 0 1 325.50 308.02
  Q 332.82 308.77 334.99 315.73
  A 0.41 0.41 0.0 0 1 334.30 316.13
  C 333.36 315.09 332.80 313.39 332.04 312.47
  Z"
/>
<path fill="#e7f0ff" d="
  M 376.38 307.98
  L 387.16 308.03
  C 388.80 314.70 392.38 316.36 398.56 317.99
  C 409.04 320.77 401.22 332.27 398.36 338.11
  C 394.12 346.80 401.63 356.75 411.19 353.29
  Q 412.83 352.70 415.50 350.30
  Q 419.95 346.29 425.22 345.54
  L 425.24 357.28
  C 418.66 356.10 415.58 359.11 410.85 362.33
  C 404.69 366.51 401.32 363.98 397.01 359.70
  C 385.02 347.81 382.54 366.79 383.02 373.91
  L 366.22 374.31
  L 368.07 368.01
  C 375.96 368.11 377.80 363.15 376.67 356.50
  C 375.99 352.56 374.43 347.76 378.18 344.93
  C 382.68 341.52 389.88 336.49 385.30 330.59
  C 382.29 326.73 377.33 326.18 377.21 319.78
  Q 377.11 313.75 376.38 307.98
  Z"
/>
<ellipse fill="#252e4d" cx="0.00" cy="0.00" transform="translate(282.54,318.50) rotate(90.1)" rx="5.08" ry="3.41"/>
<ellipse fill="#252e4d" cx="0.00" cy="0.00" transform="translate(325.38,318.51) rotate(90.4)" rx="5.08" ry="3.43"/>
<path fill="#ffffff" d="
  M 363.02 314.71
  Q 369.66 316.41 365.20 321.08
  A 0.82 0.79 68.4 0 0 364.98 321.61
  L 364.87 326.55
  Q 364.86 327.00 365.11 327.38
  L 365.79 328.41
  Q 364.63 328.57 364.45 329.53
  L 363.14 330.08
  L 362.56 321.79
  A 1.11 1.08 -73.1 0 0 362.17 321.04
  C 359.33 318.75 360.43 316.37 363.02 314.71
  Z"
/>
<path fill="#ffffff" d="
  M 244.90 315.52
  C 245.66 316.89 245.94 317.88 245.32 319.47
  C 244.00 322.87 244.81 325.94 245.31 329.40
  Q 245.40 330.02 244.85 329.72
  L 243.61 329.04
  Q 243.10 328.77 243.04 329.34
  Q 241.32 345.26 246.30 358.45
  Q 251.72 372.85 264.73 377.72
  Q 268.05 378.97 281.37 382.87
  Q 283.11 383.55 284.93 384.23
  Q 286.66 384.87 288.01 386.31
  Q 289.09 387.45 290.26 388.53
  C 296.58 394.37 297.29 404.52 296.82 412.50
  Q 296.64 415.43 298.29 422.19
  Q 297.74 423.27 299.24 425.35
  L 297.22 425.42
  Q 297.30 422.34 295.97 421.18
  Q 296.53 411.97 295.64 403.08
  C 295.10 397.66 293.65 393.88 290.36 389.88
  Q 286.96 385.74 281.24 384.70
  Q 281.57 383.94 280.38 383.57
  C 273.23 381.30 264.33 379.10 258.68 375.46
  C 247.23 368.08 242.14 353.44 241.94 340.25
  Q 241.85 334.18 241.62 328.23
  L 241.36 322.24
  A 1.27 1.23 19.9 0 0 240.92 321.34
  Q 238.51 319.25 240.01 316.23
  Q 240.26 315.74 240.78 315.54
  Q 242.77 314.80 244.90 315.52
  Z"
/>
<path fill="#f4f9ff" d="
  M 154.09 322.14
  Q 153.42 328.35 148.99 334.23
  C 144.57 340.12 135.79 344.34 128.50 345.36
  Q 116.43 347.04 104.65 352.28
  L 104.60 322.59
  A 0.47 0.46 -0.6 0 1 105.07 322.12
  L 154.09 322.14
  Z"
/>
<path fill="#e7f0ff" d="
  M 184.21 372.02
  Q 183.76 373.40 182.11 374.57
  Q 181.65 374.89 181.33 374.43
  Q 180.67 373.44 179.94 372.45
  C 178.09 369.91 174.75 370.33 173.04 372.67
  C 171.97 374.14 172.29 375.73 172.59 377.42
  Q 172.70 378.03 172.08 377.98
  Q 166.40 377.54 165.58 383.23
  C 162.52 382.97 159.41 382.43 156.46 382.40
  Q 144.17 382.28 131.37 382.42
  Q 119.24 375.90 104.84 375.32
  L 104.65 352.28
  Q 116.43 347.04 128.50 345.36
  C 135.79 344.34 144.57 340.12 148.99 334.23
  Q 153.42 328.35 154.09 322.14
  L 183.22 322.05
  A 0.76 0.75 90.0 0 1 183.97 322.81
  L 184.21 372.02
  Z"
/>
<path fill="#e7f0ff" d="
  M 213.24 322.21
  Q 206.09 341.80 204.82 349.50
  Q 202.28 364.96 195.50 379.11
  Q 195.26 379.61 194.72 379.68
  Q 193.12 379.91 192.38 380.82
  L 188.66 372.37
  L 188.88 322.93
  A 0.77 0.77 0.0 0 1 189.65 322.16
  L 213.24 322.21
  Z"
/>
<path fill="#f4f9ff" d="
  M 235.72 322.14
  Q 236.36 321.27 236.96 322.29
  Q 239.47 326.61 241.05 328.34
  Q 239.77 340.75 239.55 362.00
  Q 239.41 375.12 248.49 382.77
  Q 245.72 382.56 243.00 382.49
  Q 223.55 381.99 204.69 382.49
  Q 199.64 381.75 194.73 382.86
  Q 192.82 383.29 192.38 380.82
  Q 193.12 379.91 194.72 379.68
  Q 195.26 379.61 195.50 379.11
  Q 202.28 364.96 204.82 349.50
  Q 206.09 341.80 213.24 322.21
  L 235.72 322.14
  Z"
/>
<path fill="#252e4d" d="
  M 241.05 328.34
  Q 241.24 328.07 241.62 328.23
  Q 241.85 334.18 241.94 340.25
  C 242.14 353.44 247.23 368.08 258.68 375.46
  C 264.33 379.10 273.23 381.30 280.38 383.57
  Q 281.57 383.94 281.24 384.70
  Q 281.46 387.38 280.85 388.17
  L 268.49 388.35
  L 256.85 386.74
  L 248.49 382.77
  Q 239.41 375.12 239.55 362.00
  Q 239.77 340.75 241.05 328.34
  Z"
/>
<path fill="#ffffff" d="
  M 304.54 339.90
  Q 305.35 340.18 304.49 340.16
  Q 302.66 340.12 301.12 339.11
  A 1.29 1.28 -74.5 0 1 300.55 338.10
  Q 300.38 333.13 302.78 328.72
  A 0.08 0.07 63.9 0 1 302.92 328.77
  Q 302.34 332.27 301.43 335.80
  Q 300.71 338.58 304.54 339.90
  Z"
/>
<path fill="#1c273d" d="
  M 365.79 328.41
  L 366.75 328.43
  Q 368.91 348.18 368.07 368.01
  L 366.22 374.31
  L 364.82 377.06
  Q 357.09 386.85 344.75 387.57
  Q 343.55 387.64 344.48 386.87
  C 354.76 378.33 362.56 370.00 364.30 356.50
  Q 365.85 344.42 364.45 329.53
  Q 364.63 328.57 365.79 328.41
  Z"
/>
<path fill="#dae5f9" d="
  M 425.24 357.28
  L 425.25 373.61
  Q 425.25 374.12 424.74 374.12
  L 383.02 373.91
  C 382.54 366.79 385.02 347.81 397.01 359.70
  C 401.32 363.98 404.69 366.51 410.85 362.33
  C 415.58 359.11 418.66 356.10 425.24 357.28
  Z"
/>
<path fill="#ffffff" d="
  M 314.08 356.92
  A 0.13 0.13 0.0 0 1 314.21 357.05
  L 314.21 357.10
  A 10.14 10.00 0.0 0 1 304.07 367.10
  L 303.89 367.10
  A 10.14 10.00 0.0 0 1 293.75 357.10
  L 293.75 357.05
  A 0.13 0.13 0.0 0 1 293.88 356.92
  L 314.08 356.92
  Z"
/>
<path fill="#fec0b2" d="
  M 184.21 372.02
  Q 186.46 371.70 188.66 372.37
  L 192.38 380.82
  Q 192.82 383.29 194.73 382.86
  Q 199.64 381.75 204.69 382.49
  L 205.46 387.28
  L 209.38 410.52
  L 172.11 424.06
  Q 165.47 407.79 159.79 391.41
  Q 159.44 390.40 160.33 387.24
  L 162.68 385.46
  A 1.42 1.40 -62.3 0 1 163.55 385.18
  Q 165.42 385.21 165.58 383.23
  Q 166.40 377.54 172.08 377.98
  Q 172.70 378.03 172.59 377.42
  C 172.29 375.73 171.97 374.14 173.04 372.67
  C 174.75 370.33 178.09 369.91 179.94 372.45
  Q 180.67 373.44 181.33 374.43
  Q 181.65 374.89 182.11 374.57
  Q 183.76 373.40 184.21 372.02
  Z
  M 195.28 384.49
  L 194.46 384.72
  A 0.16 0.16 0.0 0 0 194.34 384.91
  L 194.74 386.32
  A 10.36 0.51 74.4 0 0 198.01 396.16
  L 198.17 396.12
  A 10.36 0.51 74.4 0 0 195.87 386.00
  L 195.48 384.60
  A 0.16 0.16 0.0 0 0 195.28 384.49
  Z"
/>
<path fill="#dae5f9" d="
  M 165.58 383.23
  Q 165.42 385.21 163.55 385.18
  A 1.42 1.40 -62.3 0 0 162.68 385.46
  L 160.33 387.24
  L 139.27 387.83
  L 131.37 382.42
  Q 144.17 382.28 156.46 382.40
  C 159.41 382.43 162.52 382.97 165.58 383.23
  Z"
/>
<path fill="#dae5f9" d="
  M 248.49 382.77
  L 256.85 386.74
  Q 249.79 388.44 242.65 387.67
  L 205.46 387.28
  L 204.69 382.49
  Q 223.55 381.99 243.00 382.49
  Q 245.72 382.56 248.49 382.77
  Z"
/>
<path fill="#ffffff" d="
  M 195.28 384.49
  A 0.16 0.16 0.0 0 1 195.48 384.60
  L 195.87 386.00
  A 10.36 0.51 74.4 0 1 198.17 396.12
  L 198.01 396.16
  A 10.36 0.51 74.4 0 1 194.74 386.32
  L 194.34 384.91
  A 0.16 0.16 0.0 0 1 194.46 384.72
  L 195.28 384.49
  Z"
/>
<path fill="#fec0b2" d="
  M 295.97 421.18
  Q 280.88 415.12 280.99 399.48
  L 281.52 388.96
  Q 281.54 388.50 281.14 388.28
  Q 281.01 388.20 280.85 388.17
  Q 281.46 387.38 281.24 384.70
  Q 286.96 385.74 290.36 389.88
  C 293.65 393.88 295.10 397.66 295.64 403.08
  Q 296.53 411.97 295.97 421.18
  Z"
/>
<path fill="#e7f0ff" d="
  M 256.85 386.74
  L 268.49 388.35
  Q 267.11 394.26 268.74 399.26
  Q 260.56 399.26 252.31 399.33
  Q 243.56 399.40 239.37 400.91
  C 230.86 403.97 226.25 410.10 223.78 418.67
  Q 222.74 422.26 221.49 425.43
  Q 220.83 425.47 220.16 425.51
  L 214.11 410.22
  Q 226.30 405.04 237.19 396.39
  Q 239.24 394.76 240.41 392.40
  Q 241.52 390.16 242.65 387.67
  Q 249.79 388.44 256.85 386.74
  Z"
/>
<path fill="#f4f9ff" d="
  M 160.33 387.24
  Q 159.44 390.40 159.79 391.41
  Q 165.47 407.79 172.11 424.06
  Q 171.42 424.26 169.93 425.13
  C 168.51 425.96 167.70 427.50 168.25 429.01
  Q 171.86 438.88 175.28 448.29
  L 154.20 447.83
  Q 154.77 445.01 155.60 442.52
  C 156.82 438.84 156.87 435.49 157.61 431.81
  C 158.69 426.43 157.92 421.33 156.51 416.14
  Q 152.02 399.67 139.27 387.83
  L 160.33 387.24
  Z"
/>
<path fill="#f4f9ff" d="
  M 205.46 387.28
  L 242.65 387.67
  Q 241.52 390.16 240.41 392.40
  Q 239.24 394.76 237.19 396.39
  Q 226.30 405.04 214.11 410.22
  Q 210.91 409.72 209.38 410.52
  L 205.46 387.28
  Z"
/>
<path fill="#dae5f9" d="
  M 268.49 388.35
  L 280.85 388.17
  Q 281.01 388.20 281.14 388.28
  Q 281.54 388.50 281.52 388.96
  L 280.99 399.48
  L 268.74 399.26
  Q 267.11 394.26 268.49 388.35
  Z"
/>
<path fill="#62a9bb" d="
  M 268.74 399.26
  L 280.99 399.48
  Q 280.88 415.12 295.97 421.18
  Q 297.30 422.34 297.22 425.42
  L 221.49 425.43
  Q 222.74 422.26 223.78 418.67
  C 226.25 410.10 230.86 403.97 239.37 400.91
  Q 243.56 399.40 252.31 399.33
  Q 260.56 399.26 268.74 399.26
  Z"
/>
<path fill="#62a9bb" d="
  M 326.65 399.35
  L 331.58 399.34
  Q 332.22 399.34 331.95 399.92
  Q 327.51 409.26 328.73 419.47
  C 328.94 421.15 328.38 422.94 328.34 424.60
  A 0.50 0.49 -36.1 0 0 329.31 424.75
  C 330.29 421.47 329.61 416.62 329.66 413.15
  C 329.74 408.13 330.88 404.25 333.09 400.09
  A 1.50 1.48 13.4 0 1 334.37 399.31
  C 342.69 399.16 353.07 398.28 360.45 400.97
  Q 376.03 406.65 376.86 425.41
  L 309.97 425.43
  L 299.24 425.35
  Q 297.74 423.27 298.29 422.19
  Q 322.71 423.88 325.93 399.76
  Q 325.99 399.33 326.65 399.35
  Z"
/>
<path fill="#62a9bb" d="
  M 214.11 410.22
  L 220.16 425.51
  Q 213.39 425.47 205.25 425.60
  Q 197.82 425.71 198.80 433.01
  Q 205.17 480.45 211.51 529.21
  Q 203.26 525.32 200.04 516.48
  Q 187.70 482.64 175.28 448.29
  Q 171.86 438.88 168.25 429.01
  C 167.70 427.50 168.51 425.96 169.93 425.13
  Q 171.42 424.26 172.11 424.06
  L 209.38 410.52
  Q 210.91 409.72 214.11 410.22
  Z"
/>
<path fill="#252e4d" d="
  M 516.78 447.69
  Q 518.81 456.47 516.82 465.53
  A 0.11 0.11 0.0 0 0 517.02 465.62
  L 521.91 459.05
  A 1.43 1.42 63.0 0 0 522.19 458.17
  Q 522.12 453.19 524.45 449.08
  C 526.00 445.71 532.98 436.70 536.39 441.92
  Q 537.70 443.93 536.56 448.38
  C 535.04 453.70 531.17 460.63 525.12 461.89
  A 1.06 1.05 62.2 0 1 524.16 461.59
  Q 523.21 460.59 522.25 461.73
  Q 515.36 469.87 512.42 479.20
  Q 512.20 479.90 512.80 479.46
  C 514.82 477.96 516.49 477.16 518.37 475.18
  C 523.07 470.21 530.82 468.18 537.68 470.18
  C 541.51 471.30 542.22 474.68 538.78 477.07
  C 533.94 480.42 523.17 483.62 518.33 478.54
  Q 517.98 478.18 517.53 478.40
  C 510.67 481.80 507.65 488.32 504.59 495.26
  Q 504.34 495.84 504.92 495.59
  C 507.04 494.68 508.29 494.25 510.16 492.62
  Q 518.56 485.31 529.68 488.50
  C 531.90 489.14 533.04 491.61 531.56 493.65
  C 527.77 498.83 513.87 501.72 509.33 496.37
  A 0.78 0.76 63.5 0 0 508.59 496.11
  C 501.86 497.48 499.38 504.85 498.12 511.48
  A 0.34 0.34 0.0 0 0 498.46 511.88
  Q 501.03 511.77 502.14 510.38
  Q 504.82 507.03 507.20 505.96
  C 510.98 504.26 521.87 502.18 524.61 506.49
  C 528.85 513.15 507.97 518.75 502.30 513.03
  Q 501.93 512.66 501.44 512.82
  Q 500.47 513.13 499.56 514.03
  Q 497.39 514.74 496.91 517.46
  Q 495.43 518.26 494.21 517.65
  Q 495.76 514.89 494.06 512.58
  A 0.67 0.67 0.0 0 0 493.25 512.37
  C 486.23 515.53 474.96 504.62 474.89 497.67
  A 1.07 1.06 -19.9 0 1 475.28 496.85
  C 481.31 492.02 490.82 501.75 493.48 506.69
  C 494.21 508.04 494.14 509.70 494.91 511.21
  Q 495.20 511.77 495.63 511.31
  Q 496.81 510.00 496.70 508.09
  Q 500.68 502.18 497.33 496.37
  Q 497.07 495.93 496.56 495.91
  Q 492.23 495.68 488.35 491.83
  Q 484.97 488.01 483.30 482.92
  C 482.13 479.36 482.23 474.29 487.64 475.52
  C 493.64 479.07 498.41 485.17 498.45 492.39
  Q 498.46 495.73 500.34 498.72
  Q 500.63 499.18 500.87 498.69
  Q 504.04 492.22 507.35 485.79
  Q 509.39 481.84 506.64 478.07
  Q 506.36 477.69 505.88 477.69
  C 499.26 477.71 493.87 472.45 490.72 467.16
  C 489.09 464.03 488.14 459.05 493.68 459.20
  C 500.26 461.43 507.44 467.48 507.82 474.96
  C 507.92 476.93 508.74 478.33 509.53 480.02
  Q 509.82 480.63 510.10 480.01
  C 513.65 472.16 517.53 464.55 510.64 456.90
  Q 510.30 456.53 509.82 456.69
  C 503.85 458.76 496.56 450.89 493.56 445.91
  L 492.96 442.26
  C 492.70 437.98 497.29 438.33 499.83 439.57
  Q 508.51 443.82 511.11 452.73
  Q 511.85 455.26 513.03 457.04
  Q 514.26 458.88 515.27 460.84
  Q 515.70 461.68 515.80 460.74
  Q 516.62 452.86 514.61 445.27
  Q 514.48 444.81 514.01 444.73
  C 507.04 443.68 502.24 434.05 501.65 428.00
  C 501.47 426.19 502.37 423.99 504.37 423.57
  C 508.57 422.69 513.95 430.31 515.36 433.64
  Q 516.47 436.27 516.53 440.57
  Q 516.59 444.25 516.78 447.69
  Z
  M 506.5037 428.1719
  A 0.27 0.27 0.0 0 0 506.1368 428.0660
  L 505.8742 428.2110
  A 0.27 0.27 0.0 0 0 505.7683 428.5778
  L 511.3163 438.6281
  A 0.27 0.27 0.0 0 0 511.6832 438.7340
  L 511.9458 438.5890
  A 0.27 0.27 0.0 0 0 512.0517 438.2222
  L 506.5037 428.1719
  Z
  M 497.9301 442.8775
  A 0.26 0.26 0.0 0 0 497.5627 442.8634
  L 497.4599 442.9586
  A 0.26 0.26 0.0 0 0 497.4458 443.3260
  L 505.1099 451.6025
  A 0.26 0.26 0.0 0 0 505.4773 451.6166
  L 505.5801 451.5214
  A 0.26 0.26 0.0 0 0 505.5942 451.1540
  L 497.9301 442.8775
  Z
  M 532.8378 446.2416
  A 0.26 0.26 0.0 0 0 532.7570 445.8829
  L 532.5879 445.7761
  A 0.26 0.26 0.0 0 0 532.2292 445.8569
  L 525.7422 456.1184
  A 0.26 0.26 0.0 0 0 525.8230 456.4771
  L 525.9921 456.5839
  A 0.26 0.26 0.0 0 0 526.3508 456.5031
  L 532.8378 446.2416
  Z
  M 502.3393 472.3158
  A 0.26 0.26 0.0 0 0 502.3284 471.9482
  L 494.4831 464.5551
  A 0.26 0.26 0.0 0 0 494.1155 464.5660
  L 494.0607 464.6242
  A 0.26 0.26 0.0 0 0 494.0716 464.9918
  L 501.9169 472.3849
  A 0.26 0.26 0.0 0 0 502.2845 472.3740
  L 502.3393 472.3158
  Z
  M 533.4360 474.6275
  A 0.34 0.34 0.0 0 0 533.0504 474.3401
  L 522.4427 475.8876
  A 0.34 0.34 0.0 0 0 522.1554 476.2731
  L 522.1640 476.3325
  A 0.34 0.34 0.0 0 0 522.5496 476.6199
  L 533.1573 475.0724
  A 0.34 0.34 0.0 0 0 533.4446 474.6869
  L 533.4360 474.6275
  Z
  M 492.48 487.81
  L 492.75 487.60
  A 0.13 0.13 0.0 0 0 492.77 487.41
  L 487.88 481.20
  A 0.54 0.27 51.8 0 0 487.33 480.94
  L 487.28 480.98
  A 0.54 0.27 51.8 0 0 487.41 481.57
  L 492.30 487.78
  A 0.13 0.13 0.0 0 0 492.48 487.81
  Z
  M 526.6759 492.5734
  A 0.46 0.46 0.0 0 0 526.1564 492.1819
  L 514.5900 493.8074
  A 0.46 0.46 0.0 0 0 514.1985 494.3270
  L 514.2041 494.3666
  A 0.46 0.46 0.0 0 0 514.7236 494.7581
  L 526.2900 493.1326
  A 0.46 0.46 0.0 0 0 526.6815 492.6130
  L 526.6759 492.5734
  Z
  M 489.08 507.40
  C 487.74 504.78 482.34 498.77 479.10 499.30
  A 0.31 0.31 0.0 0 0 479.06 499.90
  Q 485.32 501.90 488.51 507.75
  Q 488.61 507.94 488.95 507.78
  Q 489.21 507.66 489.08 507.40
  Z
  M 518.12 508.40
  C 514.21 508.42 510.62 509.58 506.85 510.45
  Q 506.72 510.48 506.67 510.57
  Q 506.60 510.69 506.65 510.86
  Q 506.72 511.12 507.00 511.09
  C 509.51 510.77 511.92 509.59 514.13 509.30
  Q 516.15 509.02 518.19 508.96
  Q 518.26 508.96 518.26 508.90
  L 518.28 508.56
  A 0.16 0.15 1.7 0 0 518.12 508.40
  Z"
/>
<path fill="#252e4d" d="
  M 297.22 425.42
  L 299.24 425.35
  L 309.97 425.43
  L 309.31 425.95
  A 0.57 0.56 49.2 0 0 309.26 426.79
  Q 321.36 439.23 329.41 454.42
  C 333.77 462.66 335.53 470.25 337.68 478.75
  C 340.00 487.97 339.95 497.74 339.12 507.16
  C 338.52 514.02 336.15 521.15 334.40 528.14
  Q 333.39 532.20 328.10 541.33
  A 1.67 1.67 0.0 0 0 327.87 542.28
  Q 327.99 544.24 326.25 544.23
  Q 269.92 544.03 213.50 544.04
  L 211.51 529.21
  Q 205.17 480.45 198.80 433.01
  Q 197.82 425.71 205.25 425.60
  Q 213.39 425.47 220.16 425.51
  Q 220.83 425.47 221.49 425.43
  L 297.22 425.42
  Z
  M 318.89 484.76
  A 15.85 15.85 0.0 0 0 303.04 468.91
  A 15.85 15.85 0.0 0 0 287.19 484.76
  A 15.85 15.85 0.0 0 0 303.04 500.61
  A 15.85 15.85 0.0 0 0 318.89 484.76
  Z"
/>
<path fill="#1c273d" d="
  M 376.86 425.41
  Q 388.62 425.47 401.25 425.37
  C 406.74 425.32 407.65 429.70 407.03 434.37
  Q 399.85 488.73 392.64 543.09
  Q 392.57 543.62 393.08 543.77
  L 395.46 544.52
  Q 396.01 544.69 396.32 545.17
  Q 399.21 549.53 394.91 552.81
  L 343.57 552.86
  L 209.05 552.86
  Q 205.02 549.60 207.29 545.96
  C 208.72 543.68 211.09 543.69 213.50 544.04
  Q 269.92 544.03 326.25 544.23
  Q 327.99 544.24 327.87 542.28
  A 1.67 1.67 0.0 0 1 328.10 541.33
  Q 333.39 532.20 334.40 528.14
  C 336.15 521.15 338.52 514.02 339.12 507.16
  C 339.95 497.74 340.00 487.97 337.68 478.75
  C 335.53 470.25 333.77 462.66 329.41 454.42
  Q 321.36 439.23 309.26 426.79
  A 0.57 0.56 49.2 0 1 309.31 425.95
  L 309.97 425.43
  L 376.86 425.41
  Z"
/>
<rect fill="#516597" x="-0.42" y="-6.01" transform="translate(508.91,433.40) rotate(-28.9)" width="0.84" height="12.02" rx="0.27"/>
<path fill="#627eb3" d="
  M 492.96 442.26
  L 493.56 445.91
  Q 496.29 452.79 493.68 459.20
  C 488.14 459.05 489.09 464.03 490.72 467.16
  L 487.64 475.52
  C 482.23 474.29 482.13 479.36 483.30 482.92
  Q 484.97 488.01 488.35 491.83
  Q 491.75 500.55 496.70 508.09
  Q 496.81 510.00 495.63 511.31
  Q 495.20 511.77 494.91 511.21
  C 494.14 509.70 494.21 508.04 493.48 506.69
  C 490.82 501.75 481.31 492.02 475.28 496.85
  A 1.07 1.06 -19.9 0 0 474.89 497.67
  C 474.96 504.62 486.23 515.53 493.25 512.37
  A 0.67 0.67 0.0 0 1 494.06 512.58
  Q 495.76 514.89 494.21 517.65
  L 482.70 517.51
  Q 462.61 502.81 467.67 479.98
  C 469.40 472.16 475.23 461.81 477.12 453.27
  Q 478.74 445.95 476.50 439.52
  C 475.69 436.55 473.17 432.79 476.13 430.84
  C 479.07 428.90 487.17 434.56 489.08 437.19
  Q 490.83 439.60 492.96 442.26
  Z"
/>
<rect fill="#516597" x="-0.33" y="-5.90" transform="translate(501.52,447.24) rotate(-42.8)" width="0.66" height="11.80" rx="0.26"/>
<rect fill="#516597" x="-0.36" y="-6.33" transform="translate(529.29,451.18) rotate(32.3)" width="0.72" height="12.66" rx="0.26"/>
<path fill="#dae5f9" d="
  M 493.56 445.91
  C 496.56 450.89 503.85 458.76 509.82 456.69
  Q 510.30 456.53 510.64 456.90
  C 517.53 464.55 513.65 472.16 510.10 480.01
  Q 509.82 480.63 509.53 480.02
  C 508.74 478.33 507.92 476.93 507.82 474.96
  C 507.44 467.48 500.26 461.43 493.68 459.20
  Q 496.29 452.79 493.56 445.91
  Z"
/>
<path fill="#dae5f9" d="
  M 154.20 447.83
  L 175.28 448.29
  Q 187.70 482.64 200.04 516.48
  Q 203.26 525.32 211.51 529.21
  L 213.50 544.04
  C 211.09 543.69 208.72 543.68 207.29 545.96
  Q 205.02 549.60 209.05 552.86
  L 156.07 552.75
  Q 162.88 549.79 164.78 543.24
  Q 164.93 542.74 165.45 542.70
  C 176.22 541.96 176.74 527.38 165.37 525.39
  Q 164.84 525.30 165.00 524.79
  C 166.43 519.99 163.47 519.09 159.46 519.12
  Q 153.19 519.18 146.93 519.22
  L 134.27 519.18
  A 2.86 2.86 0.0 0 0 131.41 522.01
  Q 131.34 530.86 131.38 540.25
  Q 131.42 548.72 140.56 552.76
  Q 103.85 552.79 67.57 552.80
  C 62.80 552.80 59.50 553.53 58.52 558.50
  Q 57.44 563.94 60.46 567.95
  Q 59.21 569.50 56.50 568.84
  Q 35.31 563.62 25.94 546.06
  C 15.50 526.49 20.84 503.48 38.06 489.55
  C 47.30 482.09 56.55 480.98 69.48 480.92
  Q 93.87 480.81 101.76 480.87
  C 121.95 481.00 140.75 471.87 150.51 454.09
  Q 152.43 450.60 154.20 447.83
  Z
  M 148.39 495.91
  C 152.03 503.09 139.54 508.84 147.10 516.13
  A 0.86 0.86 0.0 0 0 148.44 515.08
  C 145.87 510.68 148.96 504.47 150.47 500.00
  Q 150.98 498.51 149.35 495.85
  Q 149.17 495.58 148.85 495.56
  Q 148.72 495.55 148.58 495.56
  Q 148.23 495.59 148.39 495.91
  Z
  M 140.24 502.72
  C 139.41 504.24 138.35 505.24 138.01 506.85
  Q 137.20 510.67 140.78 512.37
  A 0.53 0.52 -79.8 0 0 141.52 511.85
  C 141.37 510.06 140.44 508.49 140.55 506.86
  C 140.71 504.56 141.61 502.88 141.28 500.11
  A 0.30 0.30 0.0 0 0 140.71 500.02
  Q 140.30 500.96 140.39 501.99
  Q 140.42 502.38 140.24 502.72
  Z
  M 155.59 513.72
  Q 154.42 508.75 158.04 505.10
  A 1.15 1.14 -18.1 0 0 158.36 504.48
  L 158.58 503.26
  A 0.47 0.47 0.0 0 0 157.80 502.84
  Q 154.45 505.96 152.60 510.19
  C 152.04 511.48 152.85 512.78 153.49 513.95
  Q 154.06 514.98 155.10 514.61
  Q 155.74 514.38 155.59 513.72
  Z"
/>
<path fill="#dae5f9" d="
  M 516.78 447.69
  L 524.45 449.08
  Q 522.12 453.19 522.19 458.17
  A 1.43 1.42 63.0 0 1 521.91 459.05
  L 517.02 465.62
  A 0.11 0.11 0.0 0 1 516.82 465.53
  Q 518.81 456.47 516.78 447.69
  Z"
/>
<path fill="#dae5f9" d="
  M 547.42 567.95
  C 551.55 562.35 550.55 552.86 541.75 552.81
  Q 524.82 552.72 507.31 552.86
  L 508.50 546.43
  L 512.17 528.01
  Q 517.44 527.72 516.34 521.22
  C 515.94 518.82 514.49 517.90 512.05 517.87
  Q 506.58 517.80 501.30 517.66
  Q 501.12 515.70 499.56 514.03
  Q 500.47 513.13 501.44 512.82
  Q 501.93 512.66 502.30 513.03
  C 507.97 518.75 528.85 513.15 524.61 506.49
  C 521.87 502.18 510.98 504.26 507.20 505.96
  Q 504.82 507.03 502.14 510.38
  Q 501.03 511.77 498.46 511.88
  A 0.34 0.34 0.0 0 1 498.12 511.48
  C 499.38 504.85 501.86 497.48 508.59 496.11
  A 0.78 0.76 63.5 0 1 509.33 496.37
  C 513.87 501.72 527.77 498.83 531.56 493.65
  C 533.04 491.61 531.90 489.14 529.68 488.50
  Q 518.56 485.31 510.16 492.62
  C 508.29 494.25 507.04 494.68 504.92 495.59
  Q 504.34 495.84 504.59 495.26
  C 507.65 488.32 510.67 481.80 517.53 478.40
  Q 517.98 478.18 518.33 478.54
  C 523.17 483.62 533.94 480.42 538.78 477.07
  C 542.22 474.68 541.51 471.30 537.68 470.18
  C 530.82 468.18 523.07 470.21 518.37 475.18
  C 516.49 477.16 514.82 477.96 512.80 479.46
  Q 512.20 479.90 512.42 479.20
  Q 515.36 469.87 522.25 461.73
  Q 523.21 460.59 524.16 461.59
  A 1.06 1.05 62.2 0 0 525.12 461.89
  C 531.17 460.63 535.04 453.70 536.56 448.38
  Q 571.45 447.88 590.46 476.06
  C 606.22 499.43 602.28 532.63 582.06 552.21
  Q 569.26 564.60 550.22 568.62
  Q 548.24 569.04 547.42 567.95
  Z"
/>
<rect fill="#516597" x="-5.65" y="-0.30" transform="translate(498.20,468.47) rotate(43.3)" width="11.30" height="0.60" rx="0.26"/>
<path fill="#dae5f9" d="
  M 490.72 467.16
  C 493.87 472.45 499.26 477.71 505.88 477.69
  Q 506.36 477.69 506.64 478.07
  Q 509.39 481.84 507.35 485.79
  Q 504.04 492.22 500.87 498.69
  Q 500.63 499.18 500.34 498.72
  Q 498.46 495.73 498.45 492.39
  C 498.41 485.17 493.64 479.07 487.64 475.52
  L 490.72 467.16
  Z"
/>
<circle fill="#40587e" cx="303.04" cy="484.76" r="15.85"/>
<rect fill="#516597" x="-5.70" y="-0.37" transform="translate(527.80,475.48) rotate(-8.3)" width="11.40" height="0.74" rx="0.34"/>
<path fill="#516597" d="
  M 492.48 487.81
  A 0.13 0.13 0.0 0 1 492.30 487.78
  L 487.41 481.57
  A 0.54 0.27 51.8 0 1 487.28 480.98
  L 487.33 480.94
  A 0.54 0.27 51.8 0 1 487.88 481.20
  L 492.77 487.41
  A 0.13 0.13 0.0 0 1 492.75 487.60
  L 492.48 487.81
  Z"
/>
<path fill="#dae5f9" d="
  M 488.35 491.83
  Q 492.23 495.68 496.56 495.91
  Q 497.07 495.93 497.33 496.37
  Q 500.68 502.18 496.70 508.09
  Q 491.75 500.55 488.35 491.83
  Z"
/>
<rect fill="#40587e" x="-6.30" y="-0.48" transform="translate(520.44,493.47) rotate(-8.0)" width="12.60" height="0.96" rx="0.46"/>
<path fill="#ffffff" d="
  M 148.39 495.91
  Q 148.23 495.59 148.58 495.56
  Q 148.72 495.55 148.85 495.56
  Q 149.17 495.58 149.35 495.85
  Q 150.98 498.51 150.47 500.00
  C 148.96 504.47 145.87 510.68 148.44 515.08
  A 0.86 0.86 0.0 0 1 147.10 516.13
  C 139.54 508.84 152.03 503.09 148.39 495.91
  Z"
/>
<path fill="#516597" d="
  M 479.10 499.30
  C 482.34 498.77 487.74 504.78 489.08 507.40
  Q 489.21 507.66 488.95 507.78
  Q 488.61 507.94 488.51 507.75
  Q 485.32 501.90 479.06 499.90
  A 0.31 0.31 0.0 0 1 479.10 499.30
  Z"
/>
<path fill="#ffffff" d="
  M 140.39 501.99
  Q 140.30 500.96 140.71 500.02
  A 0.30 0.30 0.0 0 1 141.28 500.11
  C 141.61 502.88 140.71 504.56 140.55 506.86
  C 140.44 508.49 141.37 510.06 141.52 511.85
  A 0.53 0.52 -79.8 0 1 140.78 512.37
  Q 137.20 510.67 138.01 506.85
  C 138.35 505.24 139.41 504.24 140.24 502.72
  Q 140.42 502.38 140.39 501.99
  Z"
/>
<path fill="#ffffff" d="
  M 155.59 513.72
  Q 155.74 514.38 155.10 514.61
  Q 154.06 514.98 153.49 513.95
  C 152.85 512.78 152.04 511.48 152.60 510.19
  Q 154.45 505.96 157.80 502.84
  A 0.47 0.47 0.0 0 1 158.58 503.26
  L 158.36 504.48
  A 1.15 1.14 -18.1 0 1 158.04 505.10
  Q 154.42 508.75 155.59 513.72
  Z"
/>
<path fill="#516597" d="
  M 506.85 510.45
  C 510.62 509.58 514.21 508.42 518.12 508.40
  A 0.16 0.15 1.7 0 1 518.28 508.56
  L 518.26 508.90
  Q 518.26 508.96 518.19 508.96
  Q 516.15 509.02 514.13 509.30
  C 511.92 509.59 509.51 510.77 507.00 511.09
  Q 506.72 511.12 506.65 510.86
  Q 506.60 510.69 506.67 510.57
  Q 506.72 510.48 506.85 510.45
  Z"
/>
<path fill="#627eb3" d="
  M 499.56 514.03
  Q 501.12 515.70 501.30 517.66
  L 496.91 517.46
  Q 497.39 514.74 499.56 514.03
  Z"
/>
<path fill="#7cc6d3" d="
  M 482.70 517.51
  L 494.21 517.65
  Q 495.43 518.26 496.91 517.46
  L 501.30 517.66
  Q 506.58 517.80 512.05 517.87
  C 514.49 517.90 515.94 518.82 516.34 521.22
  Q 517.44 527.72 512.17 528.01
  L 477.08 527.65
  Q 472.12 527.53 473.40 520.99
  Q 474.11 517.34 477.50 517.65
  Q 481.48 518.01 482.70 517.51
  Z"
/>
<path fill="#1c273d" d="
  M 156.07 552.75
  L 146.65 553.00
  Q 148.32 549.57 149.97 546.43
  Q 151.73 543.06 151.99 540.28
  C 152.59 533.88 150.95 526.36 146.36 521.51
  Q 144.99 520.06 146.93 519.22
  Q 153.19 519.18 159.46 519.12
  C 163.47 519.09 166.43 519.99 165.00 524.79
  Q 164.84 525.30 165.37 525.39
  C 176.74 527.38 176.22 541.96 165.45 542.70
  Q 164.93 542.74 164.78 543.24
  Q 162.88 549.79 156.07 552.75
  Z
  M 165.21 528.23
  L 165.25 540.01
  A 0.14 0.14 0.0 0 0 165.39 540.15
  L 165.45 540.15
  A 5.90 5.70 89.8 0 0 171.13 534.23
  L 171.13 533.97
  A 5.90 5.70 89.8 0 0 165.41 528.09
  L 165.35 528.09
  A 0.14 0.14 0.0 0 0 165.21 528.23
  Z"
/>
<path fill="#252e4d" d="
  M 146.93 519.22
  Q 144.99 520.06 146.36 521.51
  C 150.95 526.36 152.59 533.88 151.99 540.28
  Q 151.73 543.06 149.97 546.43
  Q 148.32 549.57 146.65 553.00
  L 140.56 552.76
  Q 131.42 548.72 131.38 540.25
  Q 131.34 530.86 131.41 522.01
  A 2.86 2.86 0.0 0 1 134.27 519.18
  L 146.93 519.22
  Z"
/>
<path fill="#64b8c2" d="
  M 512.17 528.01
  L 508.50 546.43
  Q 500.68 536.63 491.31 533.37
  Q 486.82 531.81 477.58 529.69
  L 477.08 527.65
  L 512.17 528.01
  Z"
/>
<path fill="#dae5f9" d="
  M 165.21 528.23
  A 0.14 0.14 0.0 0 1 165.35 528.09
  L 165.41 528.09
  A 5.90 5.70 89.8 0 1 171.13 533.97
  L 171.13 534.23
  A 5.90 5.70 89.8 0 1 165.45 540.15
  L 165.39 540.15
  A 0.14 0.14 0.0 0 1 165.25 540.01
  L 165.21 528.23
  Z"
/>
<path fill="#7cc6d3" d="
  M 477.58 529.69
  Q 486.82 531.81 491.31 533.37
  Q 500.68 536.63 508.50 546.43
  L 507.31 552.86
  L 482.35 552.83
  L 477.58 529.69
  Z"
/>
<path fill="#516597" d="
  M 140.56 552.76
  L 146.65 553.00
  L 156.07 552.75
  L 209.05 552.86
  L 343.57 552.86
  Q 355.42 560.21 363.22 569.53
  Q 138.76 569.69 64.00 569.51
  Q 62.43 569.50 60.46 567.95
  Q 57.44 563.94 58.52 558.50
  C 59.50 553.53 62.80 552.80 67.57 552.80
  Q 103.85 552.79 140.56 552.76
  Z"
/>
<path fill="#40587e" d="
  M 343.57 552.86
  L 394.91 552.81
  L 482.35 552.83
  L 507.31 552.86
  Q 524.82 552.72 541.75 552.81
  C 550.55 552.86 551.55 562.35 547.42 567.95
  Q 545.36 569.50 543.75 569.51
  Q 486.18 569.72 363.22 569.53
  Q 355.42 560.21 343.57 552.86
  Z"
/>
</svg>
